<svg width="102" height="100" viewBox="0 0 102 100" fill="none" xmlns="http://www.w3.org/2000/svg">
<circle cx="47.5" cy="47.5" r="47.5" fill="#E0F2FF"/>
<path d="M29.4337 92.7078L23.9201 98.2214L6.13428 80.4355L23.2087 63.3611L64.6497 67.8076C68.5626 68.1633 71.0526 72.2541 69.6297 75.9891H69.8076L90.0834 55.3575C92.5735 52.8675 96.6642 52.8675 99.1542 55.3575C101.644 57.8475 101.644 61.9383 99.1542 64.4283L69.274 94.1306L29.4337 92.7078Z" fill="white"/>
<path d="M13.9601 28.6788C16.4501 28.6788 18.4066 30.6353 18.4066 33.1253C18.4066 35.6153 16.4501 37.5718 13.9601 37.5718C11.4701 37.5718 9.51367 35.6153 9.51367 33.1253C9.51367 30.6353 11.4701 28.6788 13.9601 28.6788Z" fill="#9BC9FF"/>
<path d="M93.4628 34.1924C96.8421 34.1924 99.51 36.8603 99.51 40.2396C99.51 43.6189 96.8421 46.2868 93.4628 46.2868C90.0835 46.2868 87.4156 43.6189 87.4156 40.2396C87.4156 37.0381 90.0835 34.1924 93.4628 34.1924Z" fill="#9BC9FF"/>
<path d="M41.8838 3.06714C43.6624 3.06714 45.2631 4.49001 45.2631 6.44645C45.2631 8.22504 43.8403 9.82576 41.8838 9.82576C40.1052 9.82576 38.5045 8.40289 38.5045 6.44645C38.5045 4.66787 39.9274 3.06714 41.8838 3.06714Z" fill="#9BC9FF"/>
<path d="M48.6425 21.5645C58.4247 21.5645 66.4284 29.5681 66.4284 39.3503C66.4284 49.1325 58.4247 57.1361 48.6425 57.1361C38.8603 57.1361 30.8567 49.1325 30.8567 39.3503C30.8567 29.5681 38.8603 21.5645 48.6425 21.5645Z" fill="#9BC9FF"/>
<path d="M94.5299 19.7859C95.4192 19.7859 96.1307 20.4973 96.1307 21.3866C96.1307 22.2759 95.4192 22.9873 94.5299 22.9873C93.6406 22.9873 92.9292 22.2759 92.9292 21.3866C92.9292 20.4973 93.6406 19.7859 94.5299 19.7859Z" fill="#1E81CE"/>
<path d="M75.6769 2C76.5662 2 77.2776 2.71143 77.2776 3.60073C77.2776 4.49002 76.5662 5.20145 75.6769 5.20145C74.7876 5.20145 74.0762 4.49002 74.0762 3.60073C74.0762 2.71143 74.7876 2 75.6769 2Z" fill="#1E81CE"/>
<path d="M74.4319 26.1888V24.0545C73.5426 24.0545 73.1869 24.4102 73.1869 25.1216C73.1869 25.4774 73.3648 25.6552 73.5426 25.8331C73.7205 26.0109 74.0762 26.0109 74.4319 26.1888ZM75.1434 29.3902V31.5245C76.0327 31.5245 76.3884 31.1688 76.3884 30.6353C76.3884 30.2795 76.2105 30.1017 76.0327 29.9238C76.0327 29.746 75.6769 29.5681 75.1434 29.3902ZM74.2541 21.5645V19.7859H75.4991V21.5645C76.2105 21.5645 76.922 21.7423 77.6334 22.098C78.3448 22.2759 78.8784 22.6316 79.412 22.9873L78.167 25.2995C77.9891 25.1216 76.5662 24.4102 75.3212 24.2323V26.5445C75.4991 26.5445 76.3884 26.7224 77.4555 27.2559C78.5227 27.6117 79.0563 28.3231 79.412 29.0345C79.7677 29.9238 79.7677 31.1688 79.412 32.236C78.7005 33.6588 77.0998 34.1924 75.4991 34.3703V36.3267H74.2541V34.3703C72.6534 34.1924 71.0526 33.6588 69.8076 32.9474L71.0526 30.4574C71.2305 30.8131 72.8312 31.7024 74.4319 31.8803V29.5681C74.0762 29.3902 73.0091 29.2124 72.1198 28.6788C71.4083 28.3231 70.6969 27.7895 70.5191 27.0781C70.1633 26.3667 70.1633 25.1216 70.6969 24.2323C70.8748 23.6988 71.2305 23.3431 71.5862 22.9873C72.1198 22.098 73.1869 21.7423 74.2541 21.5645Z" fill="#1E81CE"/>
<path d="M63.4047 11.6043V9.82572C62.6933 9.82572 62.5154 10.1814 62.5154 10.5372C62.5154 10.715 62.5154 10.8929 62.6933 11.0707C62.8711 11.4264 63.049 11.4264 63.4047 11.6043ZM64.1161 14.0943V15.6951C64.8276 15.6951 65.1833 15.3393 65.1833 14.9836C65.1833 14.8058 65.0054 14.6279 64.8276 14.45C64.6497 14.2722 64.4719 14.2722 64.1161 14.0943ZM59.6697 16.5843L60.7368 14.6279C60.9147 14.8058 62.1597 15.5172 63.4047 15.6951V13.9165C63.049 13.7386 61.4483 13.3829 60.7368 12.6715C60.2033 12.1379 60.0254 11.6043 60.0254 11.0707C60.0254 9.47 61.0925 8.225 63.2268 7.86928V6.44641H64.1161V7.86928C64.6497 7.86928 65.1833 8.04714 65.7169 8.225C66.2504 8.40285 66.6062 8.58071 67.1397 8.93643L66.0726 10.715C65.8947 10.5372 64.8276 10.0036 63.9383 9.82572V11.6043C64.1161 11.6043 64.8276 11.7822 65.7169 12.1379C66.6062 12.4936 66.9619 13.0272 67.3176 13.5607C67.6733 14.2722 67.6733 15.3393 67.3176 16.0508C66.9619 16.7622 66.2504 17.2958 65.539 17.4736C65.1833 17.6515 64.6497 17.6515 64.294 17.6515V19.2522H63.4047V17.6515C61.9818 17.6515 60.7368 17.2958 59.6697 16.5843Z" fill="#1E81CE"/>
<path d="M48.4646 37.7496V35.6153C47.5754 35.6153 47.2196 35.971 47.2196 36.6824C47.2196 37.0381 47.3975 37.216 47.5754 37.3939C47.7532 37.3939 48.1089 37.5717 48.4646 37.7496ZM49.1761 40.951V43.0853C50.0654 43.0853 50.4211 42.7296 50.4211 42.196C50.4211 41.8403 50.2432 41.6625 50.0654 41.4846C50.0654 41.1289 49.7097 40.951 49.1761 40.951ZM48.4646 40.5953L47.5754 40.4175C47.0418 40.2396 46.5082 40.0617 46.1525 39.8839C45.7968 39.706 45.4411 39.5282 45.0853 39.1724C44.7296 38.9946 44.5518 38.6389 44.5518 38.2832C44.3739 37.9274 44.3739 37.5717 44.3739 37.0381C44.3739 36.5046 44.5518 35.971 44.7296 35.4374C44.9075 34.9038 45.2632 34.5481 45.6189 34.1924C45.9746 33.8367 46.3303 33.6588 46.8639 33.481C47.3975 33.3031 47.9311 33.1253 48.4646 33.1253V31.3467H49.7097V33.1253C50.4211 33.1253 51.1325 33.3031 51.844 33.6588C52.5554 33.8367 53.089 34.1924 53.6225 34.5481L52.3775 36.8603C52.3775 36.8603 52.1997 36.6824 52.0218 36.6824C51.844 36.5046 51.6661 36.5046 51.3104 36.3267C51.1325 36.1489 50.7768 36.1489 50.4211 35.971C50.0654 35.7931 49.7097 35.7931 49.5318 35.7931V38.1053L50.0654 38.2832C50.5989 38.461 51.1325 38.6389 51.6661 38.8167C52.1997 38.9946 52.5554 39.1724 52.9111 39.5282C53.2668 39.8839 53.4447 40.2396 53.6225 40.5953C53.8004 40.951 53.9783 41.4846 53.9783 42.0182C53.9783 42.7296 53.8004 43.2632 53.6225 43.6189C53.4447 44.1525 53.089 44.5082 52.7332 44.6861C52.3775 45.0418 51.844 45.2196 51.4882 45.3975C50.9547 45.5754 50.4211 45.5754 49.8875 45.5754V47.5318H48.6425V45.3975C47.9311 45.3975 47.0418 45.2196 46.3303 44.8639C45.6189 44.6861 44.9075 44.3303 44.196 43.7968L45.4411 41.3068C45.4411 41.3068 45.6189 41.4846 45.7968 41.6625C45.9746 41.8403 46.3303 42.0182 46.5082 42.0182C46.8639 42.196 47.2196 42.3739 47.5754 42.3739C47.9311 42.5518 48.2868 42.5518 48.8204 42.7296L48.4646 40.5953Z" fill="#1E81CE"/>
<path d="M16.8058 9.82581C17.6951 9.82581 18.4065 10.5372 18.4065 11.4265C18.4065 12.3158 17.6951 13.0273 16.8058 13.0273C15.9165 13.0273 15.2051 12.3158 15.2051 11.4265C15.2051 10.5372 15.9165 9.82581 16.8058 9.82581Z" fill="#1E81CE"/>
<path d="M5.60073 45.3975C6.49002 45.3975 7.20145 46.1089 7.20145 46.9982C7.20145 47.8875 6.49002 48.5989 5.60073 48.5989C4.71143 48.5989 4 47.8875 4 46.9982C4 46.1089 4.71143 45.3975 5.60073 45.3975Z" fill="#1E81CE"/>
<path d="M40.1052 49.1325C39.7495 49.1325 39.5717 48.9546 39.3938 48.7768C34.2359 43.6189 34.2359 35.0817 39.3938 29.9238C39.7495 29.5681 40.461 29.5681 40.9945 29.9238C41.3503 30.2795 41.3503 30.9909 40.9945 31.5245C38.8602 33.6588 37.7931 36.5045 37.7931 39.3503C37.7931 42.3739 39.0381 45.0417 40.9945 47.176C41.3503 47.5318 41.3503 48.2432 40.9945 48.7768C40.6388 49.1325 40.2831 49.1325 40.1052 49.1325Z" fill="#1E81CE"/>
<path d="M57.3575 49.1325C57.0018 49.1325 56.8239 48.9546 56.6461 48.7768C56.2903 48.421 56.2903 47.7096 56.6461 47.176C58.7804 45.0417 59.8475 42.196 59.8475 39.3503C59.8475 36.3267 58.6025 33.6588 56.6461 31.5245C56.2903 31.1688 56.2903 30.4573 56.6461 29.9238C57.0018 29.5681 57.7132 29.5681 58.2468 29.9238C63.4047 35.0817 63.4047 43.6189 58.2468 48.7768C57.8911 49.1325 57.7132 49.1325 57.3575 49.1325Z" fill="#1E81CE"/>
<path d="M48.6425 58.3812C38.1489 58.3812 29.7896 49.844 29.7896 39.5282C29.7896 29.2124 38.3268 20.4973 48.6425 20.4973C58.9583 20.4973 67.4955 29.0345 67.4955 39.3503C67.4955 49.6661 59.1362 58.3812 48.6425 58.3812ZM48.6425 22.8095C39.3939 22.8095 31.9239 30.2795 31.9239 39.5282C31.9239 48.7768 39.3939 56.2469 48.6425 56.2469C57.8912 56.2469 65.3612 48.7768 65.3612 39.5282C65.3612 30.2795 57.8912 22.8095 48.6425 22.8095Z" fill="#1E81CE"/>
<path d="M13.96 38.6388C10.9364 38.6388 8.44641 36.1488 8.44641 33.1252C8.44641 30.1016 10.9364 27.6116 13.96 27.6116C16.9836 27.6116 19.4736 30.1016 19.4736 33.1252C19.4736 36.1488 16.9836 38.6388 13.96 38.6388ZM13.96 29.7459C12.1814 29.7459 10.5807 31.1687 10.5807 33.1252C10.5807 34.9038 12.0036 36.5045 13.96 36.5045C15.7386 36.5045 17.3393 35.0816 17.3393 33.1252C17.3393 31.1687 15.9165 29.7459 13.96 29.7459Z" fill="#1E81CE"/>
<path d="M41.8838 10.8929C39.3938 10.8929 37.4374 8.93648 37.4374 6.44646C37.4374 3.95644 39.3938 2 41.8838 2C44.3739 2 46.3303 3.95644 46.3303 6.44646C46.3303 8.93648 44.196 10.8929 41.8838 10.8929ZM41.8838 4.31216C40.6388 4.31216 39.5717 5.37931 39.5717 6.62432C39.5717 7.86933 40.6388 8.93648 41.8838 8.93648C43.1288 8.93648 44.196 7.86933 44.196 6.62432C44.0181 5.20145 42.951 4.31216 41.8838 4.31216Z" fill="#1E81CE"/>
<path d="M93.4628 47.5318C89.55 47.5318 86.1707 44.3303 86.1707 40.2396C86.1707 36.1488 89.3721 32.9474 93.4628 32.9474C97.5536 32.9474 100.755 36.1488 100.755 40.2396C100.755 44.3303 97.5536 47.5318 93.4628 47.5318ZM93.4628 35.4374C90.6171 35.4374 88.4828 37.7496 88.4828 40.4174C88.4828 43.2632 90.795 45.3975 93.4628 45.3975C96.3086 45.3975 98.4429 43.0853 98.4429 40.4174C98.4429 37.5717 96.3086 35.4374 93.4628 35.4374Z" fill="#1E81CE"/>
<path d="M29.4338 93.775C29.0781 93.775 28.9002 93.5971 28.7223 93.4193L18.7623 83.4592C18.4066 83.1035 18.4066 82.392 18.7623 81.8585C19.118 81.5027 19.8294 81.5027 20.363 81.8585L30.3231 91.8185C30.6788 92.1743 30.6788 92.8857 30.3231 93.4193C30.1452 93.775 29.7895 93.775 29.4338 93.775Z" fill="#1E81CE"/>
<path d="M23.9201 99.4665C23.5644 99.4665 23.3866 99.2886 23.2087 99.1107L5.42286 81.3249C5.245 81.147 5.06714 80.7913 5.06714 80.6135C5.06714 80.4356 5.245 80.0799 5.42286 79.902L22.4973 62.8276C22.6751 62.6498 23.0308 62.4719 23.3866 62.4719L64.6497 66.9184C66.2504 67.0962 67.8512 67.8077 68.9183 68.8748C69.9855 69.942 70.8748 71.5427 71.0526 73.1434V73.3213L89.1942 54.824C90.617 53.4011 92.5735 52.6897 94.5299 52.6897C96.4864 52.6897 98.4428 53.4011 99.8657 54.824C102.711 57.6697 102.711 62.4719 99.8657 65.4955L69.9855 95.02C69.8076 95.1979 69.4519 95.3757 69.0962 95.3757L29.7895 93.9529L24.4537 99.2886C24.4537 99.2886 24.2758 99.4665 23.9201 99.4665ZM7.73501 80.4356L23.9201 96.6207L28.7223 91.8186C28.9002 91.6407 29.2559 91.4628 29.6116 91.4628L68.9183 92.8857L98.0871 63.7169C100.221 61.5826 100.221 58.3812 98.0871 56.2469C97.0199 55.1797 95.7749 54.6461 94.3521 54.6461C92.9292 54.6461 91.6842 55.1797 90.617 56.2469L70.3412 76.8784L70.1633 77.0563C68.9183 79.5463 66.4283 80.9692 63.5826 80.7913L40.8167 79.7242C40.2831 79.7242 39.7495 79.1906 39.7495 78.4792C39.7495 77.9456 40.2831 77.412 40.9945 77.412L63.7604 78.4792C65.7169 78.4792 67.4954 77.412 68.3847 75.6334C68.7405 74.922 68.7405 74.0327 68.7405 73.3213C68.5626 72.2541 68.2069 71.187 67.3176 70.4755C66.6062 69.7641 65.539 69.2305 64.4719 69.0527L23.5644 64.6062L7.73501 80.4356Z" fill="#1E81CE"/>
</svg>
