<svg width="37" height="33" viewBox="0 0 37 33" fill="none" xmlns="http://www.w3.org/2000/svg">
<path d="M10.73 20.5333V9.16667H3.7C1.665 9.16667 0 10.8167 0 12.8333V23.8333C0 25.85 1.665 27.5 3.7 27.5H5.55V33L11.1 27.5H20.35C22.385 27.5 24.05 25.85 24.05 23.8333V20.4967C23.9284 20.5225 23.8044 20.5354 23.68 20.5352H10.73V20.5333ZM33.3 0H16.65C14.615 0 12.95 1.65 12.95 3.66667V18.3333H25.9L31.45 23.8333V18.3333H33.3C35.335 18.3333 37 16.6852 37 14.6667V3.66667C37 1.65 35.335 0 33.3 0Z" fill="#1E81CE"/>
</svg>
