<svg width="95" height="95" viewBox="0 0 95 95" fill="none" xmlns="http://www.w3.org/2000/svg">
<circle cx="47.5" cy="47.5" r="47.5" fill="#E0F2FF"/>
<path d="M81.376 8.70715C83.2004 8.70715 84.673 10.1797 84.673 12.0041C84.673 13.8285 83.2004 15.301 81.376 15.301C79.5516 15.301 78.0791 13.8285 78.0791 12.0041C78.0791 10.1797 79.5516 8.70715 81.376 8.70715Z" fill="white"/>
<path d="M16.3887 10.2969C17.7701 10.2969 18.8907 11.4176 18.8907 12.799C18.8907 14.1803 17.7701 15.301 16.3887 15.301C15.0074 15.301 13.8867 14.1803 13.8867 12.799C13.8867 11.4176 15.0074 10.2969 16.3887 10.2969Z" fill="white"/>
<path d="M13.0919 63.0217C14.4732 63.0217 15.5939 64.1424 15.5939 65.5237C15.5939 66.905 14.4732 68.0257 13.0919 68.0257C11.7105 68.0257 10.5898 66.905 10.5898 65.5237C10.5898 64.1424 11.7105 63.0217 13.0919 63.0217Z" fill="white"/>
<path d="M63.3146 8.70715H56.7207V15.301H63.3146V8.70715Z" fill="white"/>
<path d="M79.6559 33.4926H69.9084V25.1917H76.2286L79.6559 33.4926Z" fill="white"/>
<path d="M69.9084 33.4926H60.0176V41.7936H69.9084V33.4926Z" fill="white"/>
<path d="M60.0177 25.1917H50.127V33.4926H60.0177V25.1917Z" fill="white"/>
<path d="M50.1269 33.4926H40.2361V41.7936H50.1269V33.4926Z" fill="white"/>
<path d="M79.6559 33.4926L83.0831 41.6633H74.7822H69.9084V33.4926H79.6559Z" fill="white"/>
<path d="M69.9084 25.1917H60.0176V33.4926H69.9084V25.1917Z" fill="white"/>
<path d="M60.0177 33.4926H50.127V41.7936H60.0177V33.4926Z" fill="white"/>
<path d="M50.1269 25.1917H40.2361V33.4926H50.1269V25.1917Z" fill="white"/>
<path d="M72.0064 15.301L76.2286 25.1917H69.9084H60.0176H50.1268H40.236V33.4927V41.6633H22.0443H14.408L25.3412 15.301H56.7207H63.3145H72.0064Z" fill="#9BC9FF"/>
<path d="M53.4237 49.9772V53.2741H43.533V49.9772V46.6803H53.4237V49.9772Z" fill="white"/>
<path d="M56.7207 73.0428V81.2134H40.2361V73.0428V58.1479H56.7207V73.0428Z" fill="white"/>
<path d="M74.7822 49.9773V73.0427H56.7208V58.1479H40.2362V73.0427H22.0444V49.9773H43.5331V53.2742H53.4239V49.9773H74.7822Z" fill="#9BC9FF"/>
<path d="M74.9124 73.0428H56.7207V81.3438H74.9124V73.0428Z" fill="white"/>
<path d="M40.2362 73.0428H22.0444V81.3438H40.2362V73.0428Z" fill="white"/>
<path d="M74.7822 41.6633V49.9773H53.4239V46.6803H43.5331V49.9773H22.0444V41.6633H40.2362H50.1269H60.0177H69.9085H74.7822Z" fill="white"/>
<path d="M82.5617 20.709C82.8224 20.9696 83.083 21.3736 83.083 21.8948C83.083 22.2858 82.9527 22.82 82.5617 23.0807C82.3011 23.3413 81.8971 23.615 81.3759 23.615C80.4507 23.615 79.6558 22.82 79.6558 21.8948C79.6558 21.5039 79.7861 20.9696 80.177 20.709C80.4376 20.4483 80.8416 20.1747 81.3629 20.1747C81.8841 20.305 82.2881 20.4353 82.5487 20.709H82.5617Z" fill="#1E81CE"/>
<path d="M82.5617 55.3723C82.8224 55.6329 83.083 56.0369 83.083 56.5581C83.083 57.0794 82.9527 57.4833 82.5617 57.744C82.3011 58.0046 81.8971 58.1349 81.3759 58.1349C80.4507 58.1349 79.6558 57.34 79.6558 56.4278C79.6558 56.0369 79.7861 55.5026 80.177 55.242C80.4376 54.9813 80.8416 54.7207 81.3629 54.7207C81.8841 54.851 82.2881 54.9813 82.5487 55.3853L82.5617 55.3723Z" fill="#1E81CE"/>
<path d="M29.824 9.24132C30.0846 9.50195 30.3452 9.89289 30.3452 10.4272C30.3452 10.8181 30.2149 11.3524 29.824 11.613C29.433 11.8736 29.1594 12.004 28.6381 12.004C27.7129 12.004 26.918 11.209 26.918 10.2838C26.918 9.89289 27.0483 9.3586 27.4392 9.09797C27.8302 8.83735 28.1038 8.57672 28.6251 8.57672C29.1463 8.70703 29.5503 8.83735 29.8109 9.24132H29.824Z" fill="#1E81CE"/>
<path d="M16.6494 52.0883C16.91 52.3489 17.1837 52.7529 17.1837 53.2742C17.1837 53.7954 17.0534 54.1994 16.6494 54.46C16.2585 54.7206 15.9848 54.9813 15.4635 54.9813C14.5383 54.9813 13.7434 54.1863 13.7434 53.2611C13.7434 52.8702 13.8737 52.3359 14.2777 52.0753C14.5383 51.8146 14.9423 51.554 15.4635 51.554C15.9848 51.554 16.3888 51.6843 16.6494 52.0753V52.0883Z" fill="#1E81CE"/>
<path d="M13.3524 22.4162C13.6131 22.6768 13.8737 23.0808 13.8737 23.602C13.8737 23.9929 13.7434 24.5272 13.3524 24.7879C12.9615 25.0485 12.6878 25.1788 12.1666 25.1788C11.2414 25.1788 10.4595 24.3839 10.4595 23.4587C10.4595 23.0677 10.5898 22.5334 10.9807 22.2728C11.2414 22.0122 11.6453 21.7385 12.1666 21.7385C12.7009 21.8688 13.0918 21.9992 13.3524 22.4031V22.4162Z" fill="#1E81CE"/>
<path d="M74.7823 82.9336C73.8571 82.9336 73.0752 82.1387 73.0752 81.2134V41.6634C73.0752 40.7381 73.8701 39.9432 74.7823 39.9432C75.6945 39.9432 76.5024 40.7381 76.5024 41.6634V81.2134C76.5024 82.1387 75.7075 82.9336 74.7823 82.9336Z" fill="#1E81CE"/>
<path d="M22.0443 82.9336C21.119 82.9336 20.3372 82.1387 20.3372 81.2134V41.6634C20.3372 40.7381 21.1321 39.9432 22.0443 39.9432C22.9565 39.9432 23.7644 40.7381 23.7644 41.6634V81.2134C23.7644 82.1387 22.9695 82.9336 22.0443 82.9336Z" fill="#1E81CE"/>
<path d="M56.7207 82.9335C55.7954 82.9335 55.0005 82.1386 55.0005 81.2133V59.855H41.8128V81.3437C41.8128 82.2689 41.0179 83.0508 40.0927 83.0508C39.1675 83.0508 38.3726 82.2559 38.3726 81.3437V58.1479C38.3726 57.2227 39.1675 56.4408 40.0927 56.4408H56.5643C57.4895 56.4408 58.2844 57.2357 58.2844 58.1479V81.2133C58.2844 82.1386 57.6198 82.9335 56.7076 82.9335H56.7207Z" fill="#1E81CE"/>
<path d="M83.0832 43.3835H14.4081C13.8869 43.3835 13.3526 43.1229 13.092 42.5886C12.8313 42.1977 12.701 41.5331 12.9616 41.0118L23.8949 14.6495C24.1556 13.9849 24.6898 13.5939 25.4717 13.5939H56.8512C57.7764 13.5939 58.5713 14.3888 58.5713 15.3141C58.5713 16.2393 57.7764 17.0212 56.8512 17.0212H26.5273L16.9101 40.0866H80.5812L70.9641 17.0212H63.3147C62.3895 17.0212 61.5946 16.2263 61.5946 15.3141C61.5946 14.4019 62.3895 13.5939 63.3147 13.5939H72.0196C72.6842 13.5939 73.3358 13.9849 73.5964 14.6495L84.5427 41.0118C84.8033 41.5331 84.673 42.0674 84.4124 42.5886C84.1518 42.9796 83.6175 43.3835 83.0962 43.3835H83.0832Z" fill="#1E81CE"/>
<path d="M79.786 82.9336H17.0402C16.115 82.9336 15.3201 82.1386 15.3201 81.2134C15.3201 80.2882 16.115 79.4933 17.0402 79.4933H79.786C80.7113 79.4933 81.5062 80.2882 81.5062 81.2134C81.3759 82.1386 80.7113 82.9336 79.786 82.9336Z" fill="#1E81CE"/>
<path d="M40.2362 43.3835C39.3109 43.3835 38.5291 42.5886 38.5291 41.6633V25.1918C38.5291 24.2665 39.324 23.4716 40.2362 23.4716H76.2287C77.1539 23.4716 77.9358 24.2665 77.9358 25.1918C77.9358 26.117 77.1409 26.8989 76.2287 26.8989H41.9563V41.7937C41.826 42.5886 41.1614 43.3705 40.2362 43.3705V43.3835Z" fill="#1E81CE"/>
<path d="M79.6559 35.0825H40.2362C39.3109 35.0825 38.5291 34.2876 38.5291 33.3624C38.5291 32.4372 39.324 31.6423 40.2362 31.6423H79.6559C80.5811 31.6423 81.3761 32.4372 81.3761 33.3624C81.3761 34.2876 80.5811 35.0825 79.6559 35.0825Z" fill="#1E81CE"/>
<path d="M50.1268 43.3835C49.2016 43.3835 48.4197 42.5886 48.4197 41.6633V25.1918C48.4197 24.2665 49.2146 23.4716 50.1268 23.4716C51.039 23.4716 51.8469 24.2665 51.8469 25.1918V41.6633C51.7166 42.5886 51.052 43.3835 50.1268 43.3835Z" fill="#1E81CE"/>
<path d="M60.0177 43.3835C59.0924 43.3835 58.3105 42.5886 58.3105 41.6633V25.1918C58.3105 24.2665 59.1055 23.4716 60.0177 23.4716C60.9298 23.4716 61.7378 24.2665 61.7378 25.1918V41.6633C61.6075 42.5886 60.9429 43.3835 60.0177 43.3835Z" fill="#1E81CE"/>
<path d="M69.9085 43.3835C68.9833 43.3835 68.2014 42.5886 68.2014 41.6633V25.1918C68.2014 24.2665 68.9963 23.4716 69.9085 23.4716C70.8207 23.4716 71.6287 24.2665 71.6287 25.1918V41.6633C71.4983 42.5886 70.8337 43.3835 69.9085 43.3835Z" fill="#1E81CE"/>
<path d="M63.3147 17.0211H56.7209C55.7956 17.0211 55.0007 16.2262 55.0007 15.314V8.7071C55.0007 7.78188 55.7956 7 56.7209 7C57.6461 7 58.428 7.79491 58.428 8.7071V13.7111H61.7249V8.7071C61.7249 7.78188 62.5198 7 63.445 7C64.3703 7 65.1521 7.79491 65.1521 8.7071V15.301C64.8915 16.2262 64.2269 17.0081 63.3017 17.0081L63.3147 17.0211Z" fill="#1E81CE"/>
<path d="M66.6114 10.4272H53.4237C52.4985 10.4272 51.7036 9.63233 51.7036 8.7071C51.7036 7.78188 52.4985 7 53.4237 7H66.6114C67.5367 7 68.3186 7.79491 68.3186 8.7071C68.1882 9.63233 67.5236 10.4272 66.6114 10.4272Z" fill="#1E81CE"/>
<path d="M53.4238 54.8511H43.533C42.6078 54.8511 41.8259 54.0562 41.8259 53.1309V46.5371C41.8259 45.6119 42.6208 44.817 43.533 44.817H53.4238C54.349 44.817 55.1439 45.6119 55.1439 46.5371V53.1309C55.0136 54.0562 54.349 54.8511 53.4238 54.8511ZM45.1229 51.5541H51.7167V48.2572H45.1229V51.5541Z" fill="#1E81CE"/>
<path d="M40.236 74.6195H22.0443C21.119 74.6195 20.3372 73.8246 20.3372 72.8994C20.3372 71.9742 21.1321 71.1793 22.0443 71.1793H40.236C41.1612 71.1793 41.9561 71.9742 41.9561 72.8994C41.8258 73.8246 41.1612 74.6195 40.236 74.6195Z" fill="#1E81CE"/>
<path d="M74.7823 74.6195H56.7209C55.7956 74.6195 55.0007 73.8246 55.0007 72.8994C55.0007 71.9742 55.7956 71.1793 56.7209 71.1793H74.9126C75.8378 71.1793 76.6197 71.9742 76.6197 72.8994C76.4894 73.8246 75.6945 74.6195 74.7693 74.6195H74.7823Z" fill="#1E81CE"/>
<path d="M43.5329 51.5542H22.0443C21.119 51.5542 20.3372 50.7593 20.3372 49.8341C20.3372 48.9088 21.1321 48.127 22.0443 48.127H43.5329C44.4581 48.127 45.2531 48.9219 45.2531 49.8341C45.2531 50.7462 44.4581 51.5542 43.5329 51.5542Z" fill="#1E81CE"/>
<path d="M74.7821 51.5542H53.4237C52.4985 51.5542 51.7036 50.7593 51.7036 49.8341C51.7036 48.9088 52.4985 48.127 53.4237 48.127H74.9124C75.8376 48.127 76.6195 48.9219 76.6195 49.8341C76.6195 50.7462 75.6943 51.5542 74.7691 51.5542H74.7821Z" fill="#1E81CE"/>
<path d="M13.0918 69.7458C10.8504 69.7458 9 67.8954 9 65.654C9 63.4126 10.8504 61.5621 13.0918 61.5621C15.3332 61.5621 17.1837 63.4126 17.1837 65.654C17.1837 67.765 15.3332 69.7458 13.0918 69.7458ZM13.0918 64.7418C12.7009 64.7418 12.2969 65.1327 12.2969 65.5367C12.2969 65.9407 12.6879 66.3316 13.0918 66.3316C13.4958 66.3316 13.8867 65.9407 13.8867 65.5367C13.8867 65.1327 13.4958 64.7418 13.0918 64.7418Z" fill="#1E81CE"/>
<path d="M16.3887 17.0211C14.1473 17.0211 12.2969 15.1707 12.2969 12.9293C12.2969 10.6879 14.1473 8.83746 16.3887 8.83746C18.6301 8.83746 20.4805 10.6879 20.4805 12.9293C20.4805 15.1707 18.6301 17.0211 16.3887 17.0211ZM16.3887 12.0041C15.9978 12.0041 15.5938 12.395 15.5938 12.799C15.5938 13.203 15.9847 13.5939 16.3887 13.5939C16.7927 13.5939 17.1836 13.203 17.1836 12.799C17.1836 12.395 16.7927 12.0041 16.3887 12.0041Z" fill="#1E81CE"/>
<path d="M81.3759 17.0211C78.6132 17.0211 76.3718 14.7797 76.3718 12.0171C76.3718 9.25445 78.6132 7.01306 81.3759 7.01306C84.1385 7.01306 86.3799 9.25445 86.3799 12.0171C86.3799 14.7797 84.1385 17.0211 81.3759 17.0211ZM81.3759 10.4273C80.4506 10.4273 79.6557 11.2222 79.6557 12.1344C79.6557 13.0466 80.4506 13.8545 81.3759 13.8545C82.3011 13.8545 83.083 13.0596 83.083 12.1344C83.083 11.0788 82.288 10.4273 81.3759 10.4273Z" fill="#1E81CE"/>
</svg>
