<svg width="64" height="64" viewBox="0 0 64 64" fill="none" xmlns="http://www.w3.org/2000/svg">
<circle cx="32" cy="32" r="32" fill="#FF7A00"/>
<path d="M39.6923 24.4615H39.4877C39.6204 24.1179 39.6898 23.753 39.6923 23.3846V21.2308C39.6923 20.3739 39.3519 19.5522 38.746 18.9463C38.1402 18.3404 37.3184 18 36.4615 18H19.2308C18.3739 18 17.5522 18.3404 16.9463 18.9463C16.3404 19.5522 16 20.3739 16 21.2308V23.3846C16.004 24.092 16.24 24.7786 16.6719 25.3389C17.1038 25.8992 17.7077 26.3022 18.3908 26.4862C18.2353 26.8693 18.1549 27.2788 18.1538 27.6923V29.8462C18.1549 30.2597 18.2353 30.6691 18.3908 31.0523C17.7077 31.2362 17.1038 31.6393 16.6719 32.1996C16.24 32.7599 16.004 33.4464 16 34.1538V36.3077C16.004 37.0151 16.24 37.7017 16.6719 38.262C17.1038 38.8223 17.7077 39.2253 18.3908 39.4092C18.2353 39.7924 18.1549 40.2019 18.1538 40.6154V42.7692C18.1538 43.6261 18.4942 44.4478 19.1001 45.0537C19.706 45.6596 20.5278 46 21.3846 46H39.6923C42.5485 46 45.2877 44.8654 47.3073 42.8458C49.3269 40.8261 50.4615 38.0869 50.4615 35.2308C50.4615 32.3746 49.3269 29.6354 47.3073 27.6158C45.2877 25.5962 42.5485 24.4615 39.6923 24.4615ZM29.8277 30.9231H21.3846C21.099 30.9231 20.8251 30.8096 20.6231 30.6077C20.4212 30.4057 20.3077 30.1318 20.3077 29.8462V27.6923C20.3077 27.4067 20.4212 27.1328 20.6231 26.9308C20.8251 26.7288 21.099 26.6154 21.3846 26.6154H33.2308C31.7433 27.7332 30.5709 29.2173 29.8277 30.9231ZM18.1538 21.2308C18.1538 20.9452 18.2673 20.6712 18.4693 20.4693C18.6712 20.2673 18.9452 20.1538 19.2308 20.1538H36.4615C36.7472 20.1538 37.0211 20.2673 37.223 20.4693C37.425 20.6712 37.5385 20.9452 37.5385 21.2308V23.3846C37.5385 23.6702 37.425 23.9442 37.223 24.1461C37.0211 24.3481 36.7472 24.4615 36.4615 24.4615H19.2308C18.9452 24.4615 18.6712 24.3481 18.4693 24.1461C18.2673 23.9442 18.1538 23.6702 18.1538 23.3846V21.2308ZM18.1538 34.1538C18.1538 33.8682 18.2673 33.5943 18.4693 33.3923C18.6712 33.1904 18.9452 33.0769 19.2308 33.0769H29.1385C28.8513 34.4985 28.8513 35.9631 29.1385 37.3846H19.2308C18.9452 37.3846 18.6712 37.2712 18.4693 37.0692C18.2673 36.8672 18.1538 36.5933 18.1538 36.3077V34.1538ZM21.3846 43.8462C21.099 43.8462 20.8251 43.7327 20.6231 43.5307C20.4212 43.3288 20.3077 43.0548 20.3077 42.7692V40.6154C20.3077 40.3298 20.4212 40.0558 20.6231 39.8539C20.8251 39.6519 21.099 39.5385 21.3846 39.5385H29.8277C30.5709 41.2442 31.7433 42.7283 33.2308 43.8462H21.3846ZM39.6923 43.8462C37.9883 43.8462 36.3226 43.3409 34.9059 42.3942C33.4891 41.4475 32.3848 40.102 31.7327 38.5277C31.0807 36.9535 30.91 35.2212 31.2425 33.55C31.5749 31.8788 32.3954 30.3437 33.6003 29.1388C34.8052 27.9339 36.3403 27.1134 38.0115 26.7809C39.6827 26.4485 41.415 26.6191 42.9893 27.2712C44.5635 27.9233 45.9091 29.0275 46.8557 30.4443C47.8024 31.8611 48.3077 33.5268 48.3077 35.2308C48.3077 37.5157 47.4 39.7071 45.7843 41.3228C44.1686 42.9385 41.9772 43.8462 39.6923 43.8462Z" fill="white"/>
<path d="M39.6923 32H41.8462C42.1318 32 42.4057 31.8865 42.6077 31.6846C42.8096 31.4826 42.9231 31.2087 42.9231 30.9231C42.9231 30.6375 42.8096 30.3635 42.6077 30.1616C42.4057 29.9596 42.1318 29.8461 41.8462 29.8461H40.7692C40.7692 29.5605 40.6558 29.2866 40.4538 29.0846C40.2519 28.8827 39.9779 28.7692 39.6923 28.7692C39.4067 28.7692 39.1328 28.8827 38.9308 29.0846C38.7289 29.2866 38.6154 29.5605 38.6154 29.8461V30.04C37.9031 30.2984 37.3044 30.799 36.9238 31.4541C36.5432 32.1093 36.405 32.8774 36.5333 33.6241C36.6616 34.3709 37.0483 35.0487 37.6257 35.5393C38.2032 36.0298 38.9347 36.3018 39.6923 36.3077C39.9779 36.3077 40.2519 36.4211 40.4538 36.6231C40.6558 36.8251 40.7692 37.099 40.7692 37.3846C40.7692 37.6702 40.6558 37.9441 40.4538 38.1461C40.2519 38.3481 39.9779 38.4615 39.6923 38.4615H37.5385C37.2529 38.4615 36.9789 38.575 36.777 38.777C36.575 38.9789 36.4615 39.2528 36.4615 39.5385C36.4615 39.8241 36.575 40.098 36.777 40.3C36.9789 40.5019 37.2529 40.6154 37.5385 40.6154H38.6154C38.6154 40.901 38.7289 41.1749 38.9308 41.3769C39.1328 41.5788 39.4067 41.6923 39.6923 41.6923C39.9779 41.6923 40.2519 41.5788 40.4538 41.3769C40.6558 41.1749 40.7692 40.901 40.7692 40.6154V40.4215C41.4815 40.1631 42.0802 39.6625 42.4608 39.0074C42.8414 38.3522 42.9797 37.5842 42.8514 36.8374C42.7231 36.0907 42.3364 35.4128 41.7589 34.9222C41.1815 34.4317 40.45 34.1597 39.6923 34.1538C39.4067 34.1538 39.1328 34.0404 38.9308 33.8384C38.7289 33.6365 38.6154 33.3625 38.6154 33.0769C38.6154 32.7913 38.7289 32.5174 38.9308 32.3154C39.1328 32.1135 39.4067 32 39.6923 32Z" fill="white"/>
</svg>
