<svg width="95" height="95" viewBox="0 0 95 95" fill="none" xmlns="http://www.w3.org/2000/svg">
<circle cx="47.5" cy="47.5" r="47.5" fill="#E0F2FF"/>
<path d="M66.7103 15.839C68.1024 15.839 69.3568 16.9665 69.3568 18.5116C69.3568 19.2075 69.0811 19.9174 68.5297 20.335C68.1162 20.7526 67.4132 21.031 66.724 21.031H56.3035C54.9113 21.031 53.657 19.9035 53.657 18.3584C53.657 17.6625 53.9327 16.9526 54.3462 16.535C54.8975 16.1174 55.6005 15.839 56.2897 15.839H66.7103Z" fill="white"/>
<path d="M75.4629 21.031C76.8551 21.031 78.1094 22.1585 78.1094 23.7036C78.1094 24.3995 77.8337 25.1094 77.2824 25.527C76.8688 25.9446 76.1659 26.223 75.4767 26.223H47.6885C46.2963 26.223 45.042 25.0955 45.042 23.5504C45.042 22.8545 45.3177 22.1446 45.7312 21.727C46.1447 21.3094 46.8477 20.8918 47.5369 20.8918H75.4767V21.031H75.4629Z" fill="white"/>
<path d="M84.9049 56.1224V63.138H38.0813V36.8994H46.834C49.7562 36.8994 52.1132 34.5191 52.1132 31.5682H38.2191V26.2369H85.1944V56.1364H84.9187L84.9049 56.1224Z" fill="white"/>
<path d="M22.3677 12.3312C26.1996 12.3312 29.3147 15.477 29.3147 19.3467C29.3147 23.2163 26.1996 26.3622 22.3677 26.3622C18.5358 26.3622 15.4207 23.2163 15.4207 19.3467C15.4207 15.477 18.5358 12.3312 22.3677 12.3312Z" fill="#9BC9FF"/>
<path d="M51.9752 31.5543C51.9752 34.5053 49.6181 36.8855 46.696 36.8855H30.9962V86.008H13.477V63.138C10.5548 63.138 8.19775 60.7578 8.19775 57.8068V36.8995C8.19775 33.9485 10.5548 31.5682 13.477 31.5682H51.9752V31.5543Z" fill="#9BC9FF"/>
<path d="M86.7106 17.5233H83.2371V21.031H86.7106V17.5233Z" fill="#1E81CE"/>
<path d="M83.2369 14.0155H79.7634V17.5233H83.2369V14.0155Z" fill="#1E81CE"/>
<path d="M41.5548 10.5078H38.0813V14.0155H41.5548V10.5078Z" fill="#1E81CE"/>
<path d="M38.0812 7H34.6077V10.5078H38.0812V7Z" fill="#1E81CE"/>
<path d="M77.1308 87.8314C76.4416 87.8314 75.8764 87.4138 75.4629 86.7039L65.8694 63.8339C65.4559 62.9848 65.8694 61.8712 66.848 61.5928C67.6751 61.1752 68.7916 61.5928 69.0672 62.5811L78.6608 85.4511C79.0743 86.3002 78.6608 87.4138 77.6821 87.6922C77.5443 87.6922 77.4064 87.8314 77.1308 87.8314Z" fill="#1E81CE"/>
<path d="M45.8554 87.8314C45.5797 87.8314 45.4419 87.8314 45.1662 87.6922C44.3392 87.2746 43.9119 86.2863 44.1875 85.4511L53.7811 62.5811C54.1946 61.732 55.1732 61.3145 56.0003 61.5928C56.8273 62.0104 57.2546 62.9987 56.9789 63.8339L47.3854 86.7039C47.1097 87.3999 46.5583 87.8314 45.8554 87.8314Z" fill="#1E81CE"/>
<path d="M61.5549 87.6923C60.5763 87.6923 59.7493 86.8571 59.7493 85.8688V71.977C59.7493 70.9887 60.5763 70.1535 61.5549 70.1535C62.5336 70.1535 63.2228 70.9887 63.2228 71.977V86.008C63.2228 86.9963 62.3958 87.6923 61.5549 87.6923Z" fill="#1E81CE"/>
<path d="M22.3677 87.6923C21.389 87.6923 20.562 86.8571 20.562 85.8688V63.1381C20.562 62.1498 21.389 61.3146 22.3677 61.3146C23.3463 61.3146 24.1734 62.1498 24.1734 63.1381V86.008C24.1734 86.9963 23.3463 87.6923 22.3677 87.6923Z" fill="#1E81CE"/>
<path d="M84.905 64.9614H38.0813C37.1027 64.9614 36.2756 64.1123 36.2756 63.1379V36.8994C36.2756 35.9111 37.1027 35.0759 38.0813 35.0759C39.06 35.0759 39.887 35.925 39.887 36.8994V61.4537H83.3887V28.0465H75.6009C74.6222 28.0465 73.7952 27.1974 73.7952 26.223C73.7952 25.2486 74.6222 24.3995 75.6009 24.3995H85.1944C86.1731 24.3995 87.0001 25.2486 87.0001 26.223V62.9848C86.7244 64.1123 85.8836 64.9475 84.9187 64.9475L84.905 64.9614Z" fill="#1E81CE"/>
<path d="M38.0813 33.3777C37.1027 33.3777 36.2756 32.5425 36.2756 31.5542V26.223C36.2756 25.2347 37.1027 24.3995 38.0813 24.3995H47.6749C48.6535 24.3995 49.4805 25.2486 49.4805 26.223C49.4805 27.1974 48.6535 28.0465 47.6749 28.0465H39.887V31.5542C39.7492 32.5425 39.06 33.3777 38.0813 33.3777Z" fill="#1E81CE"/>
<path d="M31.1202 87.6922C30.1416 87.6922 29.3145 86.8571 29.3145 85.8688V36.8994C29.3145 35.9111 30.1416 35.0759 31.1202 35.0759H46.82C48.0743 35.0759 49.177 34.38 49.88 33.2525H13.7526C11.8091 33.2525 10.2791 34.7976 10.2791 36.7602V57.8067C10.2791 59.7694 11.8091 61.3145 13.7526 61.3145C14.7313 61.3145 15.5583 62.1497 15.5583 63.138V86.008C15.5583 86.9963 14.7313 87.8314 13.7526 87.8314C12.774 87.8314 11.9469 86.9963 11.9469 86.008V64.6691C8.88692 63.834 6.66772 61.1614 6.66772 57.932V36.8855C6.66772 32.9602 9.72773 29.87 13.6148 29.87H51.8373C52.816 29.87 53.643 30.7052 53.643 31.6935C53.643 35.6188 50.583 38.709 46.6959 38.709H32.8019V86.008C32.8019 86.9963 32.1127 87.6922 31.134 87.6922H31.1202Z" fill="#1E81CE"/>
<path d="M22.3677 28.0464C17.6399 28.0464 13.615 24.1211 13.615 19.2075C13.615 14.2938 17.502 10.3685 22.3677 10.3685C27.2334 10.3685 31.1204 14.2938 31.1204 19.2075C31.1204 24.1211 27.2334 28.0464 22.3677 28.0464ZM22.3677 14.0154C19.4455 14.0154 17.0885 16.3957 17.0885 19.3466C17.0885 22.2976 19.4455 24.6779 22.3677 24.6779C25.2899 24.6779 27.6469 22.2976 27.6469 19.3466C27.6469 16.3957 25.2899 14.0154 22.3677 14.0154Z" fill="#1E81CE"/>
<path d="M84.9048 87.6922H6.80568C5.82703 87.6922 5 86.8571 5 85.8688C5 84.8805 5.82703 84.0453 6.80568 84.0453H85.0427C86.0213 84.0453 86.8483 84.8805 86.8483 85.8688C86.7105 86.9963 85.8697 87.6922 84.9048 87.6922Z" fill="#1E81CE"/>
<path d="M75.4628 28.0465H47.6746C45.3175 28.0465 43.374 26.0838 43.374 23.6896C43.374 22.5621 43.7875 21.4486 44.6284 20.5995C45.4692 19.7504 46.5719 19.3328 47.6884 19.3328H56.3033C57.2819 19.3328 58.1089 20.1679 58.1089 21.1562C58.1089 22.1445 57.2681 22.9797 56.3033 22.9797H47.5505C47.2748 22.9797 46.9992 23.1189 46.9992 23.2581C46.8613 23.3973 46.7235 23.5365 46.7235 23.8149C46.7235 24.2325 47.137 24.664 47.5505 24.664H75.3387C75.6144 24.664 75.8901 24.5248 75.8901 24.3856C76.0279 24.2464 76.1657 23.968 76.1657 23.8288C76.1657 23.4112 75.7522 22.9936 75.3387 22.9936H66.586C65.6073 22.9936 64.7803 22.1585 64.7803 21.1702C64.7803 20.1819 65.6073 19.3467 66.586 19.3467H75.3387C77.6957 19.3467 79.653 21.3094 79.653 23.7035C79.653 24.831 79.2395 25.9446 78.3987 26.7937C77.7095 27.6428 76.593 28.0604 75.4765 28.0604L75.4628 28.0465Z" fill="#1E81CE"/>
<path d="M66.7102 22.8545H56.2897C53.9326 22.8545 51.9753 20.8918 51.9753 18.4977C51.9753 17.3702 52.3889 16.2566 53.2297 15.4075C54.0705 14.5584 55.1732 14.1408 56.2897 14.1408H66.7102C69.0673 14.1408 71.0246 16.1035 71.0246 18.4977C71.0246 19.6252 70.6111 20.7387 69.7703 21.5878C68.9294 22.4369 67.8267 22.8545 66.7102 22.8545ZM56.2759 17.5233C56.0002 17.5233 55.7245 17.6625 55.7245 17.8017C55.5867 17.9409 55.4489 18.2193 55.4489 18.3585C55.4489 18.7761 55.8624 19.2076 56.2759 19.2076H66.6965C66.9721 19.2076 67.2478 19.0684 67.2478 18.9292C67.3857 18.79 67.5235 18.5116 67.5235 18.3724C67.5235 17.9548 67.11 17.5372 66.6827 17.5372H56.2621L56.2759 17.5233Z" fill="#1E81CE"/>
<path d="M45.0283 54.4383C44.6148 54.4383 44.3391 54.2991 43.9118 54.0207C43.2226 53.4639 43.0848 52.3364 43.6361 51.4873L50.5832 42.6483C50.8588 42.2307 51.4102 41.9523 51.9753 41.9523C52.5405 41.9523 53.0918 42.2307 53.3675 42.7875L55.5867 46.1561L62.8094 37.4563C63.2229 37.0387 63.7881 36.7603 64.3394 36.8995C64.8908 36.8995 65.4559 37.3171 65.7316 37.8878L67.9508 42.523L74.8978 34.1016C75.4492 33.4056 76.5657 33.2525 77.3927 33.8232C78.0819 34.38 78.2335 35.5075 77.6684 36.3566L68.9156 46.8799C68.5021 47.2975 67.937 47.5759 67.3856 47.4367C66.8343 47.4367 66.2691 47.0191 65.9935 46.4484L63.7743 41.8131L56.8272 50.2345C56.4137 50.6521 56.0002 50.9305 55.4351 50.7913C54.8837 50.7913 54.3186 50.5129 54.0429 49.9561L51.8237 46.7268L46.4067 53.7423C45.9931 54.1599 45.428 54.4383 45.0145 54.4383H45.0283Z" fill="#1E81CE"/>
<path d="M77.9577 42.0914C76.9791 42.0914 76.152 41.2562 76.152 40.2679V34.9367H70.8728C69.8942 34.9367 69.0671 34.1015 69.0671 33.1132C69.0671 32.1249 69.8942 31.2897 70.8728 31.2897H77.8199C78.7985 31.2897 79.6255 32.1249 79.6255 33.1132V40.1287C79.7634 41.3954 78.9364 42.0914 77.9577 42.0914Z" fill="#1E81CE"/>
<path d="M77.9578 57.9459C76.9791 57.9459 76.1521 57.0968 76.1521 56.1224V47.4227C76.1521 46.4344 76.9929 45.5992 77.9578 45.5992C78.9226 45.5992 79.7635 46.4344 79.7635 47.4227V56.1224C79.7635 57.1107 78.9364 57.9459 77.9578 57.9459Z" fill="#1E81CE"/>
<path d="M72.8164 57.9459C71.8378 57.9459 71.0107 57.0968 71.0107 56.1224V49.1069C71.0107 48.1186 71.8378 47.4226 72.8164 47.4226C73.7951 47.4226 74.6221 48.2578 74.6221 49.1069V56.1224C74.4843 57.1107 73.7951 57.9459 72.8164 57.9459Z" fill="#1E81CE"/>
<path d="M67.5371 57.9459C66.5585 57.9459 65.7314 57.0968 65.7314 56.1224V50.9304C65.7314 49.9421 66.5585 49.1069 67.5371 49.1069C68.5158 49.1069 69.3428 49.9421 69.3428 50.9304V56.2616C69.3428 57.0968 68.5158 57.9459 67.5371 57.9459Z" fill="#1E81CE"/>
<path d="M62.3958 57.946C61.4171 57.946 60.5901 57.0969 60.5901 56.1225V52.6147C60.5901 51.6264 61.4171 50.7913 62.3958 50.7913C63.3744 50.7913 64.2014 51.6404 64.2014 52.6147V56.1225C64.0636 57.1108 63.3744 57.946 62.3958 57.946Z" fill="#1E81CE"/>
<path d="M84.9048 57.946H55.4487C54.4701 57.946 53.6431 57.0969 53.6431 56.1225C53.6431 55.1481 54.4701 54.299 55.4487 54.299H85.0426C86.0213 54.299 86.8483 55.1481 86.8483 56.1225C86.7105 57.1108 85.8696 57.946 84.9048 57.946Z" fill="#1E81CE"/>
</svg>
