<svg width="95" height="95" viewBox="0 0 95 95" fill="none" xmlns="http://www.w3.org/2000/svg">
<circle cx="47.5" cy="47.5" r="47.5" fill="#E0F2FF"/>
<path d="M28.9369 16.3124C30.9826 16.3124 32.5931 17.9228 32.5931 19.9685C32.5931 22.0142 30.9826 23.6247 28.9369 23.6247C26.8912 23.6247 25.2808 22.0142 25.2808 19.9685C25.2808 17.9228 26.8912 16.3124 28.9369 16.3124Z" fill="white"/>
<path d="M80.1376 10.7555C83.2134 10.7555 85.6944 13.251 85.6944 16.3123C85.6944 19.3736 83.1989 21.8691 80.1376 21.8691C77.0763 21.8691 74.5808 19.3736 74.5808 16.3123C74.5808 13.251 77.0763 10.7555 80.1376 10.7555Z" fill="white"/>
<path d="M69.1691 30.937C71.2148 30.937 72.8253 32.5474 72.8253 34.5931C72.8253 36.6388 71.2148 38.2493 69.1691 38.2493C67.1234 38.2493 65.5129 36.4937 65.5129 34.5931C65.5129 32.5474 67.1234 30.937 69.1691 30.937Z" fill="white"/>
<path d="M73.6959 74.8254C76.1769 74.8254 78.2226 76.8711 78.2226 79.3666C78.2226 80.6868 77.7874 81.7024 76.9023 82.5875C76.0318 83.458 75.0017 83.9077 73.6814 83.9077H59.9273C57.4463 83.9077 55.4006 81.862 55.4006 79.3811C55.4006 78.0608 55.8359 77.0452 56.7209 76.1602C57.6059 75.2751 58.6215 74.8399 59.9418 74.8399H73.6959V74.8254Z" fill="#9BC9FF"/>
<path d="M73.6959 65.6125C76.1769 65.6125 78.2226 67.6582 78.2226 70.1391C78.2226 71.4594 77.7874 72.475 76.9023 73.36C76.0318 74.2306 75.0017 74.6803 73.6814 74.6803H59.9273C57.4463 74.6803 55.4006 72.6346 55.4006 70.1391C55.4006 68.8189 55.8359 67.8033 56.7209 66.9182C57.5914 66.0332 58.6215 65.598 59.9418 65.598H73.6959V65.6125Z" fill="#9BC9FF"/>
<path d="M73.6959 56.5446C76.1769 56.5446 78.2226 58.5903 78.2226 61.0713C78.2226 62.3916 77.7874 63.4072 76.9023 64.2922C76.0318 65.1627 75.0017 65.6125 73.6814 65.6125H59.9273C57.4463 65.6125 55.4006 63.5667 55.4006 61.0713C55.4006 59.751 55.8359 58.7354 56.7209 57.8504C57.5914 56.9799 58.6215 56.5301 59.9418 56.5301H73.6959V56.5446Z" fill="#9BC9FF"/>
<path d="M73.6959 47.3172C76.1769 47.3172 78.2226 49.3629 78.2226 51.8584C78.2226 53.1787 77.7874 54.1943 76.9023 55.0793C76.0318 55.9498 75.0017 56.3996 73.6814 56.3996H59.9273C57.4463 56.3996 55.4006 54.3539 55.4006 51.8584C55.4006 50.5381 55.8359 49.5225 56.7209 48.6375C57.5914 47.767 58.6215 47.3172 59.9418 47.3172H73.6959Z" fill="#9BC9FF"/>
<path d="M26.3109 54.6439H8.90063V82.1377H26.3109V54.6439Z" fill="white"/>
<path d="M35.3787 52.8884V83.8932H26.1658V82.1377V54.644V52.8884H35.3787Z" fill="white"/>
<path d="M55.4151 79.3665C55.4151 81.8475 57.4608 83.8932 59.9418 83.8932H35.3643V52.8884C38.4401 52.8884 40.921 44.9957 40.921 41.9199V29.0508H44.287C47.5079 29.0508 49.9889 31.6768 49.9889 34.7526V41.7748C49.9889 42.6453 49.9889 43.5303 50.134 44.2558C50.4242 46.0113 51.4543 47.3316 53.6451 47.3316H60.0869C58.7666 47.3316 57.751 47.7668 56.866 48.6519C55.9809 49.5224 55.5457 50.5525 55.5457 51.8728C55.5457 54.3537 57.5914 56.4139 60.0724 56.4139C58.7521 56.4139 57.7365 56.8492 56.8514 57.7342C55.9664 58.6047 55.5312 59.6348 55.5312 60.9551C55.5312 63.4361 57.5769 65.4963 60.0578 65.4963C58.7376 65.4963 57.722 65.9316 56.8369 66.8166C55.9519 67.6871 55.5167 68.7172 55.5167 70.0375C55.5167 72.5184 57.5624 74.5787 60.0433 74.5787C58.7231 74.5787 57.7075 75.0139 56.8224 75.8989C55.9374 76.9145 55.3571 78.0897 55.3571 79.41L55.4151 79.3665Z" fill="#9BC9FF"/>
<path d="M16.2128 38.2493H12.5566V41.9055H16.2128V38.2493Z" fill="#1E81CE"/>
<path d="M16.2128 30.937H12.5566V34.5931H16.2128V30.937Z" fill="#1E81CE"/>
<path d="M16.2128 23.6246H12.5566V27.2807H16.2128V23.6246Z" fill="#1E81CE"/>
<path d="M12.5568 41.9055H8.90063V45.5617H12.5568V41.9055Z" fill="#1E81CE"/>
<path d="M12.5568 34.5931H8.90063V38.2493H12.5568V34.5931Z" fill="#1E81CE"/>
<path d="M12.5568 27.2808H8.90063V30.9369H12.5568V27.2808Z" fill="#1E81CE"/>
<path d="M60.1012 85.7939H35.3786C34.3485 85.7939 33.478 84.9234 33.478 83.8933C33.478 82.8632 34.363 81.9927 35.3786 81.9927H60.1012C61.1314 81.9927 62.0019 82.8632 62.0019 83.8933C61.8568 84.9234 60.9718 85.7939 60.1012 85.7939Z" fill="#1E81CE"/>
<path d="M35.3786 54.6439C34.3485 54.6439 33.478 53.7589 33.478 52.7433C33.478 51.7277 34.363 50.8427 35.3786 50.8427C35.5237 50.8427 36.5538 50.1173 37.7145 47.4767C38.5996 45.2859 39.0348 42.9355 39.0348 41.7748V29.0508C39.0348 28.0207 39.9198 27.1502 40.9354 27.1502H44.3014C48.5379 27.1502 51.9039 30.5162 51.9039 34.7527V41.7748C51.9039 42.6454 51.9039 43.2402 52.049 43.8206C52.3392 45.1408 52.7744 45.431 53.6594 45.431H60.1012C61.1314 45.431 62.0019 46.3015 62.0019 47.3316C62.0019 48.3617 61.1314 49.2322 60.1012 49.2322H53.6594C52.049 49.2322 49.2633 48.6519 48.3928 44.6911C48.2477 43.9656 48.1027 42.9355 48.1027 41.9054V34.8833C48.1027 32.6925 46.3471 30.9369 44.1563 30.9369H42.5459V41.9054C42.5459 43.806 41.8205 46.7368 40.7903 49.2177C39.325 52.7288 37.5694 54.6294 35.3786 54.6294V54.6439Z" fill="#1E81CE"/>
<path d="M73.6959 58.3C72.6657 58.3 71.7952 57.415 71.7952 56.3994C71.7952 55.3838 72.6657 54.4988 73.6959 54.4988C74.4213 54.4988 75.1612 54.2086 75.5965 53.7734C76.1768 53.193 76.3219 52.5982 76.3219 51.8728C76.3219 50.4074 75.1467 49.0871 73.5363 49.0871H59.7821C59.0567 49.0871 58.3168 49.3773 57.8815 49.8125C57.3012 50.3929 57.1561 50.9877 57.1561 51.7132C57.1561 53.1785 58.3313 54.4988 59.9417 54.4988C60.9718 54.4988 61.8424 55.3838 61.8424 56.3994C61.8424 57.415 60.9718 58.3 60.0868 58.3C56.5757 58.3 53.645 55.3693 53.645 51.8582C53.645 50.1027 54.3704 48.4923 55.5456 47.3171C56.7208 46.1419 58.3168 45.4164 60.0723 45.4164H73.8264C77.3375 45.4164 80.2682 48.3472 80.2682 51.8582C80.2682 53.6138 79.5428 55.2242 78.3676 56.3994C77.0473 57.5746 75.4369 58.3 73.6813 58.3H73.6959Z" fill="#1E81CE"/>
<path d="M73.6959 67.513C72.6658 67.513 71.7953 66.6425 71.7953 65.6124C71.7953 64.5823 72.6658 63.7118 73.6959 63.7118C74.4214 63.7118 75.1613 63.4216 75.5965 62.9863C76.1769 62.406 76.322 61.8112 76.322 61.0857C76.322 59.6204 75.1468 58.3001 73.5363 58.3001H59.7822C59.0568 58.3001 58.3168 58.5903 57.8816 59.0255C57.3012 59.6059 57.1562 60.2007 57.1562 60.9261C57.1562 62.3915 58.3314 63.7118 59.9418 63.7118C60.9719 63.7118 61.8424 64.5823 61.8424 65.6124C61.8424 66.6425 60.9719 67.513 59.9418 67.513C56.4307 67.513 53.5 64.5823 53.5 61.0712C53.5 59.3157 54.2254 57.7052 55.4006 56.5445C56.5758 55.3694 58.1718 54.6439 59.9273 54.6439H73.6814C77.1925 54.6439 80.1232 57.5747 80.1232 61.0857C80.1232 62.8413 79.3978 64.4517 78.2226 65.6269C77.0474 66.8021 75.4515 67.5275 73.6959 67.5275V67.513Z" fill="#1E81CE"/>
<path d="M73.6959 76.5808C72.6658 76.5808 71.7953 75.6958 71.7953 74.6802C71.7953 73.6646 72.6658 72.7796 73.6959 72.7796C74.4214 72.7796 75.1613 72.4894 75.5965 72.0542C76.1769 71.4738 76.322 70.879 76.322 70.1536C76.322 68.6882 75.1468 67.3824 73.5363 67.3824H59.7822C59.0568 67.3824 58.3168 67.6726 57.8816 68.1078C57.3012 68.6882 57.1562 69.283 57.1562 70.0085C57.1562 71.4738 58.3314 72.7941 59.9418 72.7941C60.9719 72.7941 61.8424 73.6646 61.8424 74.6947C61.8424 75.7248 60.9719 76.5954 59.9418 76.5954C56.4307 76.5954 53.5 73.6646 53.5 70.1536C53.5 68.398 54.2254 66.7876 55.4006 65.6269C56.5758 64.4517 58.1718 63.7263 59.9273 63.7263H73.6814C77.1925 63.7263 80.1232 66.657 80.1232 70.1681C80.1232 71.9236 79.3978 73.534 78.2226 74.7092C77.0474 75.8844 75.4515 76.6099 73.6959 76.6099V76.5808Z" fill="#1E81CE"/>
<path d="M73.6959 85.7939H59.9418C56.4307 85.7939 53.5 82.8632 53.5 79.3521C53.5 77.5965 54.2254 75.9861 55.4006 74.8109C56.5758 73.6357 58.1718 72.9103 59.9273 72.9103H73.6814C77.1925 72.9103 80.1232 75.841 80.1232 79.3521C80.1232 81.1076 79.3978 82.7181 78.2226 83.8788C77.0474 85.0394 75.4515 85.7794 73.6959 85.7794V85.7939ZM60.1014 76.5809C59.376 76.5809 58.636 76.8711 58.2008 77.3064C57.6204 77.8867 57.4753 78.4816 57.4753 79.207C57.4753 80.6724 58.6505 81.9926 60.261 81.9926H74.0151C74.7405 81.9926 75.4805 81.7025 75.9157 81.2672C76.4961 80.6869 76.6412 80.092 76.6412 79.3666C76.6412 77.9012 75.466 76.5809 73.8555 76.5809H60.1014Z" fill="#1E81CE"/>
<path d="M35.3787 85.7938H26.1658C25.1502 85.7938 24.2651 84.9233 24.2651 83.8932V81.9925C24.2651 80.9624 25.1502 80.0919 26.1658 80.0919C27.1814 80.0919 28.0664 80.9624 28.0664 81.9925H33.6232V54.6439H28.0664C28.0664 55.674 27.1959 56.5445 26.1658 56.5445C25.1357 56.5445 24.2651 55.6595 24.2651 54.6439V52.7433C24.2651 51.7132 25.1502 50.8427 26.1658 50.8427H35.3787C36.4088 50.8427 37.2793 51.7277 37.2793 52.7433V83.9077C37.1342 84.9378 36.3943 85.8083 35.3787 85.8083V85.7938Z" fill="#1E81CE"/>
<path d="M26.1658 83.8932H8.90062C7.87051 83.8932 7 83.0227 7 81.9926V54.644C7 53.6139 7.87051 52.7433 8.90062 52.7433H26.3109C27.341 52.7433 28.2115 53.6284 28.2115 54.644V82.1377C28.0664 83.0227 27.1814 83.8932 26.1658 83.8932ZM10.6562 80.2371H24.4103V56.5446H10.6562V80.2371Z" fill="#1E81CE"/>
<path d="M43.576 63.8569C42.9957 63.8569 42.4008 63.5667 42.1107 63.1315C41.5303 62.2465 41.6754 61.2309 42.5459 60.6505C48.2478 56.5591 48.538 48.0716 48.3929 44.5605C48.3929 43.2402 48.2478 42.3697 48.2478 42.3697C48.1027 41.3396 48.8281 40.4691 49.8582 40.324C50.8883 40.1789 51.7589 40.9044 51.9039 41.9345C51.9039 41.9345 52.049 42.9646 52.1941 44.5605C52.3392 49.682 51.7589 58.895 44.8818 63.7263C44.3015 63.7263 44.0113 63.8714 43.5615 63.8714L43.576 63.8569Z" fill="#1E81CE"/>
<path d="M69.1693 40.0047C66.0935 40.0047 63.6125 37.5238 63.6125 34.448C63.6125 31.3721 66.0935 28.8912 69.1693 28.8912C72.2451 28.8912 74.7261 31.3721 74.7261 34.448C74.7261 37.5238 72.2451 40.0047 69.1693 40.0047ZM69.1693 32.6924C68.1537 32.6924 67.2687 33.5774 67.2687 34.593C67.2687 35.6086 68.1537 36.4937 69.1693 36.4937C70.1849 36.4937 71.07 35.6231 71.07 34.593C71.07 33.5629 70.1994 32.6924 69.1693 32.6924Z" fill="#1E81CE"/>
<path d="M28.9369 25.3802C25.8611 25.3802 23.3801 22.8992 23.3801 19.8234C23.3801 16.7476 25.8611 14.4117 28.9369 14.4117C32.0127 14.4117 34.4937 16.8926 34.4937 19.9685C34.4937 23.0443 32.0127 25.3802 28.9369 25.3802ZM28.9369 18.0678C27.9068 18.0678 27.0363 18.9384 27.0363 19.9685C27.0363 20.9986 27.9068 21.8691 28.9369 21.8691C29.967 21.8691 30.8375 20.9986 30.8375 19.9685C30.8375 18.9384 29.9525 18.0678 28.9369 18.0678Z" fill="#1E81CE"/>
<path d="M80.1378 23.6246C76.0463 23.6246 72.8254 20.4037 72.8254 16.3123C72.8254 12.2209 76.0463 9 80.1378 9C84.2292 9 87.4501 12.2209 87.4501 16.3123C87.4501 20.4037 84.2292 23.6246 80.1378 23.6246ZM80.1378 12.6562C78.0921 12.6562 76.4816 14.2666 76.4816 16.3123C76.4816 18.358 78.0921 19.9685 80.1378 19.9685C82.1835 19.9685 83.7939 18.358 83.7939 16.3123C83.7939 14.2666 82.1835 12.6562 80.1378 12.6562Z" fill="#1E81CE"/>
</svg>
