<svg width="27" height="27" viewBox="0 0 27 27" fill="none" xmlns="http://www.w3.org/2000/svg">
<path d="M14.8878 0C16.4065 0.00404979 17.1773 0.0121494 17.8428 0.0310484L18.1047 0.0404979C18.4071 0.0512973 18.7054 0.0647966 19.0659 0.0809958C20.5022 0.148492 21.4822 0.375281 22.3421 0.708714C23.2331 1.0516 23.9837 1.51597 24.7342 2.26518C25.4206 2.94001 25.9518 3.7563 26.2907 4.65726C26.6241 5.51717 26.8509 6.49722 26.9184 7.93489C26.9346 8.29397 26.9481 8.59231 26.9589 8.89604L26.967 9.15793C26.9872 9.8221 26.9953 10.5929 26.998 12.1116L26.9994 13.1186V14.887C27.0027 15.8717 26.9924 16.8563 26.9683 17.8407L26.9603 18.1026C26.9495 18.4063 26.936 18.7046 26.9198 19.0637C26.8523 20.5014 26.6228 21.4801 26.2907 22.3414C25.9528 23.2428 25.4215 24.0593 24.7342 24.7334C24.0592 25.4196 23.243 25.9507 22.3421 26.2899C21.4822 26.6233 20.5022 26.8501 19.0659 26.9176C18.7455 26.9327 18.4251 26.9462 18.1047 26.9581L17.8428 26.9662C17.1773 26.9851 16.4065 26.9946 14.8878 26.9973L13.8808 26.9986H12.1137C11.1286 27.002 10.1435 26.9917 9.15871 26.9676L8.89682 26.9595C8.57636 26.9473 8.25597 26.9334 7.93567 26.9176C6.49935 26.8501 5.5193 26.6233 4.65804 26.2899C3.75719 25.9516 2.94122 25.4203 2.26731 24.7334C1.58026 24.0588 1.04863 23.2425 0.709493 22.3414C0.37606 21.4814 0.149271 20.5014 0.0817747 19.0637C0.0667349 18.7434 0.0532354 18.423 0.0412768 18.1026L0.0345273 17.8407C0.00965085 16.8563 -0.00159978 15.8717 0.000778911 14.887V12.1116C-0.0029887 11.1269 0.00691185 10.1423 0.0304775 9.15793L0.039927 8.89604C0.0507264 8.59231 0.0642257 8.29397 0.0804249 7.93489C0.147921 6.49722 0.37471 5.51852 0.708143 4.65726C1.04713 3.75538 1.57982 2.93883 2.26866 2.26518C2.9424 1.57871 3.75783 1.04753 4.65804 0.708714C5.5193 0.375281 6.498 0.148492 7.93567 0.0809958C8.29475 0.0647966 8.59444 0.0512973 8.89682 0.0404979L9.15871 0.0323982C10.1431 0.00841372 11.1277 -0.00193674 12.1124 0.00134983L14.8878 0ZM13.5001 6.74965C11.71 6.74965 9.99317 7.46078 8.72736 8.72658C7.46156 9.99239 6.75043 11.7092 6.75043 13.4993C6.75043 15.2894 7.46156 17.0062 8.72736 18.272C9.99317 19.5378 11.71 20.249 13.5001 20.249C15.2902 20.249 17.007 19.5378 18.2728 18.272C19.5386 17.0062 20.2497 15.2894 20.2497 13.4993C20.2497 11.7092 19.5386 9.99239 18.2728 8.72658C17.007 7.46078 15.2902 6.74965 13.5001 6.74965ZM13.5001 9.44951C14.0319 9.44943 14.5585 9.55409 15.0499 9.75753C15.5413 9.96097 15.9878 10.2592 16.3639 10.6352C16.74 11.0112 17.0384 11.4576 17.242 11.9489C17.4456 12.4402 17.5505 12.9668 17.5506 13.4986C17.5506 14.0305 17.446 14.5571 17.2425 15.0485C17.0391 15.5398 16.7409 15.9863 16.3649 16.3625C15.9889 16.7386 15.5425 17.037 15.0512 17.2406C14.5599 17.4442 14.0333 17.549 13.5014 17.5491C12.4274 17.5491 11.3973 17.1224 10.6378 16.3629C9.87832 15.6035 9.45165 14.5734 9.45165 13.4993C9.45165 12.4252 9.87832 11.3952 10.6378 10.6357C11.3973 9.87619 12.4274 9.44951 13.5014 9.44951M20.5886 4.72476C20.141 4.72476 19.7118 4.90254 19.3954 5.21899C19.0789 5.53544 18.9012 5.96464 18.9012 6.41217C18.9012 6.8597 19.0789 7.2889 19.3954 7.60535C19.7118 7.9218 20.141 8.09958 20.5886 8.09958C21.0361 8.09958 21.4653 7.9218 21.7818 7.60535C22.0982 7.2889 22.276 6.8597 22.276 6.41217C22.276 5.96464 22.0982 5.53544 21.7818 5.21899C21.4653 4.90254 21.0361 4.72476 20.5886 4.72476Z" fill="white"/>
</svg>
