<svg width="95" height="95" viewBox="0 0 95 95" fill="none" xmlns="http://www.w3.org/2000/svg">
<circle cx="47.5" cy="47.5" r="47.5" fill="#E0F2FF"/>
<path d="M14.6973 9.83087C16.6678 9.83087 18.2191 11.3821 18.2191 13.3526C18.2191 15.3232 16.6678 16.8744 14.6973 16.8744C12.7268 16.8744 11.1755 15.3232 11.1755 13.3526C11.1755 11.3821 12.7268 9.83087 14.6973 9.83087Z" fill="white"/>
<path d="M78.9418 34.4831C80.3533 34.4831 81.6251 35.6151 81.6251 37.1663C81.6251 38.7176 80.4931 39.8496 78.9418 39.8496C77.5303 39.8496 76.2585 38.7176 76.2585 37.1663C76.2585 35.6151 77.5303 34.4831 78.9418 34.4831Z" fill="white"/>
<path d="M57.3919 68.0239L74.302 51.1138C75.2942 50.1355 76.6917 49.5625 78.1032 49.5625C79.5147 49.5625 80.7865 50.1215 81.9045 51.1138C84.0148 53.224 84.0148 56.4663 81.9045 58.5766L57.2521 83.0892L25.2627 80.9789L18.7781 85.6327L4.83081 71.6854L19.7704 58.4368L53.1574 61.2598C54.2894 61.3996 55.4074 61.8188 56.1201 62.6713C56.9586 63.3701 57.3919 64.5021 57.5316 65.6341C57.8111 66.4866 57.6714 67.3251 57.3919 68.0239Z" fill="white"/>
<path d="M48.0842 11.6615C59.7816 11.6615 69.2149 21.0948 69.2149 32.7921C69.2149 44.4894 59.7816 53.9228 48.0842 53.9228C36.3869 53.9228 26.9536 44.4894 26.9536 32.7921C26.9536 21.0948 36.4009 11.6615 48.0842 11.6615Z" fill="#9BC9FF"/>
<path d="M16.3885 50.415H12.8667V53.9367H16.3885V50.415Z" fill="#1E81CE"/>
<path d="M12.8665 53.9368H9.34473V57.4585H12.8665V53.9368Z" fill="#1E81CE"/>
<path d="M18.7781 87.3238C18.3588 87.3238 17.9396 87.184 17.5063 86.7648L3.55901 72.8175C3.27951 72.5379 3 71.965 3 71.5457C3 71.1264 3.27951 70.5535 3.55901 70.274L18.4986 57.0254C18.9179 56.7459 19.3511 56.6061 19.7703 56.6061L53.1573 59.4291C54.7086 59.5689 56.1201 60.2676 57.2381 61.2599C57.9369 61.9587 58.5098 62.8111 58.7893 63.6497L73.0162 49.8421C74.2879 48.5703 76.1187 47.7318 77.9495 47.7318C79.7802 47.7318 81.611 48.4306 82.8827 49.8421C85.7058 52.6651 85.7058 57.0254 82.8827 59.8484L58.5098 84.361C58.0906 84.7803 57.6713 84.9201 57.0983 84.9201L25.6819 82.8098L19.7703 87.0303C19.4908 87.1701 19.2113 87.3098 18.7781 87.3098V87.3238ZM7.51402 71.8252L19.0716 83.3828L24.2844 79.5815C24.5639 79.302 24.9831 79.1622 25.4164 79.302L56.6931 81.4123L80.6467 57.4586C82.0582 56.0471 82.0582 53.7971 80.6467 52.5253C79.9479 51.8266 79.0954 51.5331 78.1172 51.5331C77.1389 51.5331 76.2864 51.9523 75.5876 52.5253L58.9571 69.0162C57.8251 71.4059 55.2955 72.9572 52.6123 72.8175L33.7317 71.965C32.7394 71.965 32.0406 71.1264 32.0406 70.1342C32.0406 69.142 32.8792 68.4432 33.8714 68.4432L52.752 69.2817C53.884 69.2817 55.002 68.7227 55.575 67.7305C55.575 67.4509 55.7148 67.1714 55.8545 67.0317C55.9943 66.6124 55.9943 66.1792 55.9943 65.8997C55.8545 65.2009 55.575 64.4882 55.002 64.0689C54.443 63.5099 53.87 63.2164 53.1713 63.2164L20.4831 60.3934L7.51402 71.8112V71.8252Z" fill="#1E81CE"/>
<path d="M25.2627 82.6839C24.8434 82.6839 24.4242 82.5442 24.1307 82.2647L15.2564 74.6621C14.5576 73.9634 14.4179 72.9711 15.1166 72.1186C15.8154 71.4199 16.8076 71.2801 17.6462 71.9789L26.5205 79.5814C27.2192 80.2802 27.359 81.2724 26.6602 82.1249C26.241 82.5442 25.668 82.6839 25.2487 82.6839H25.2627Z" fill="#1E81CE"/>
<path d="M14.6973 18.7051C11.7345 18.7051 9.34473 16.3153 9.34473 13.3525C9.34473 10.3898 11.7345 8 14.6973 8C17.66 8 20.0498 10.3898 20.0498 13.3525C20.0498 16.3153 17.5203 18.7051 14.6973 18.7051ZM14.6973 11.6615C13.705 11.6615 12.8665 12.5 12.8665 13.4923C12.8665 14.4845 13.719 15.3231 14.6973 15.3231C15.6755 15.3231 16.528 14.4845 16.528 13.4923C16.3883 12.3603 15.6755 11.6615 14.6973 11.6615Z" fill="#1E81CE"/>
<path d="M78.9416 41.5407C76.5519 41.5407 74.5674 39.5702 74.5674 37.1664C74.5674 34.7627 76.5379 32.8062 78.9416 32.8062C81.3454 32.8062 83.3159 34.7767 83.3159 37.1664C83.3159 39.5562 81.3454 41.5407 78.9416 41.5407ZM78.9416 36.3279C78.5224 36.3279 78.0892 36.7472 78.0892 37.1664C78.0892 37.5857 78.5084 38.0189 78.9416 38.0189C79.3749 38.0189 79.7802 37.5997 79.7802 37.1664C79.7802 36.7332 79.3609 36.3279 78.9416 36.3279Z" fill="#1E81CE"/>
<path d="M48.0842 55.6278C35.4086 55.6278 25.1228 45.3419 25.1228 32.6664C25.1228 19.9908 35.4086 9.69098 48.0842 9.69098C60.7598 9.69098 70.9058 19.9768 70.9058 32.6524C71.0456 45.328 60.7598 55.6138 48.0842 55.6138V55.6278ZM48.0842 13.3525C37.3791 13.3525 28.6446 22.0871 28.6446 32.7921C28.6446 43.4972 37.3791 52.2318 48.0842 52.2318C58.7893 52.2318 67.3841 43.4972 67.3841 32.7921C67.3841 22.0871 58.7893 13.3525 48.0842 13.3525Z" fill="#1E81CE"/>
<path d="M48.0843 36.3279C47.665 36.3279 47.2458 36.1881 46.9523 35.9086L36.387 27.0343C35.6882 26.4753 35.5345 25.3433 36.1075 24.5048C36.6665 23.806 37.7985 23.6523 38.637 24.2253L48.5036 32.4008L59.9214 29.1585C60.9136 28.879 61.8919 29.4381 62.0316 30.4303C62.3111 31.4225 61.7521 32.4008 60.7599 32.5406L48.3638 36.0623C48.5036 36.3418 48.224 36.3418 48.0843 36.3418V36.3279Z" fill="#1E81CE"/>
</svg>
