<svg width="95" height="95" viewBox="0 0 95 95" fill="none" xmlns="http://www.w3.org/2000/svg">
<circle cx="47.5" cy="47.5" r="47.5" fill="#E0F2FF"/>
<path d="M87.23 83.4204H13.9448C12.9855 83.4204 12.1748 82.6097 12.1748 81.6504V13.5401C12.1748 12.5808 12.9855 11.7701 13.9448 11.7701C14.9041 11.7701 15.7148 12.5943 15.7148 13.5401V80.0156H87.23C88.1893 80.0156 89 80.8262 89 81.7855C88.8649 82.5962 88.0407 83.4204 87.23 83.4204Z" fill="#1E81CE"/>
<path d="M13.9448 22.1196H8.76998C7.81068 22.1196 7 21.2954 7 20.3496C7 19.4038 7.81068 18.5797 8.76998 18.5797H13.9448C14.9041 18.5797 15.7148 19.3903 15.7148 20.3496C15.7148 21.3089 14.9041 22.1196 13.9448 22.1196Z" fill="#1E81CE"/>
<path d="M13.9448 27.1593H8.76998C7.81068 27.1593 7 26.3351 7 25.3893C7 24.4435 7.81068 23.6193 8.76998 23.6193H13.9448C14.9041 23.6193 15.7148 24.4435 15.7148 25.3893C15.7148 26.3351 14.9041 27.1593 13.9448 27.1593Z" fill="#1E81CE"/>
<path d="M13.9448 32.3477H8.76998C7.81068 32.3477 7 31.5235 7 30.5777C7 29.6319 7.81068 28.8077 8.76998 28.8077H13.9448C14.9041 28.8077 15.7148 29.6184 15.7148 30.5777C15.7148 31.537 14.9041 32.3477 13.9448 32.3477Z" fill="#1E81CE"/>
<path d="M13.9448 37.3874H8.76998C7.81068 37.3874 7 36.5632 7 35.6175C7 34.6717 7.81068 33.8475 8.76998 33.8475H13.9448C14.9041 33.8475 15.7148 34.6581 15.7148 35.6175C15.7148 36.7119 14.9041 37.3874 13.9448 37.3874Z" fill="#1E81CE"/>
<path d="M13.9448 42.5622H8.76998C7.81068 42.5622 7 41.7515 7 40.7922C7 39.8329 7.81068 39.0222 8.76998 39.0222H13.9448C14.9041 39.0222 15.7148 39.8329 15.7148 40.7922C15.7148 41.7515 14.9041 42.5622 13.9448 42.5622Z" fill="#1E81CE"/>
<path d="M13.9448 47.6018H8.76998C7.81068 47.6018 7 46.7777 7 45.8319C7 44.8861 7.81068 44.0619 8.76998 44.0619H13.9448C14.9041 44.0619 15.7148 44.8726 15.7148 45.8319C15.7148 46.9263 14.9041 47.6018 13.9448 47.6018Z" fill="#1E81CE"/>
<path d="M13.9448 52.7768H8.76998C7.81068 52.7768 7 51.9661 7 51.0068C7 50.0475 7.81068 49.2368 8.76998 49.2368H13.9448C14.9041 49.2368 15.7148 50.0475 15.7148 51.0068C15.7148 51.9661 14.9041 52.7768 13.9448 52.7768Z" fill="#1E81CE"/>
<path d="M13.9448 57.8164H8.76998C7.81068 57.8164 7 57.0058 7 56.0465C7 55.0872 7.81068 54.2765 8.76998 54.2765H13.9448C14.9041 54.2765 15.7148 55.0872 15.7148 56.0465C15.7148 57.0058 14.9041 57.8164 13.9448 57.8164Z" fill="#1E81CE"/>
<path d="M13.9448 62.9912H8.76998C7.81068 62.9912 7 62.1805 7 61.2212C7 60.2619 7.81068 59.4512 8.76998 59.4512H13.9448C14.9041 59.4512 15.7148 60.2619 15.7148 61.2212C15.7148 62.1805 14.9041 62.9912 13.9448 62.9912Z" fill="#1E81CE"/>
<path d="M13.9448 68.0309H8.76998C7.81068 68.0309 7 67.2202 7 66.2609C7 65.3016 7.81068 64.491 8.76998 64.491H13.9448C14.9041 64.491 15.7148 65.3016 15.7148 66.2609C15.7148 67.3554 14.9041 68.0309 13.9448 68.0309Z" fill="#1E81CE"/>
<path d="M13.9448 73.2058H8.76998C7.81068 73.2058 7 72.3952 7 71.4359C7 70.4766 7.81068 69.6659 8.76998 69.6659H13.9448C14.9041 69.6659 15.7148 70.4766 15.7148 71.4359C15.7148 72.3952 14.9041 73.2058 13.9448 73.2058Z" fill="#1E81CE"/>
<path d="M83.6899 18.1744C83.2846 17.08 82.0551 13.1347 81.9199 12.9996C81.6497 12.4591 81.1093 11.9052 80.5553 11.9052H75.2454C74.2861 11.9052 73.4754 12.7158 73.4754 13.6751C73.4754 14.6344 74.2861 15.4451 75.2454 15.4451H77.1505L69.5166 26.8892L58.8967 22.3899C58.2212 22.1197 57.5321 22.2548 56.9916 22.7952L46.5069 33.28L35.7519 19.5255C34.9412 18.5797 33.4415 18.7148 32.8875 19.7957L21.4434 40.7788H15.5795C14.6202 40.7788 13.8096 41.5894 13.8096 42.5487C13.8096 43.508 14.6202 44.3187 15.5795 44.3187H22.3892C23.0648 44.3187 23.6188 43.9134 23.889 43.3594L34.5089 23.4708L44.8585 36.6848C45.1287 37.0902 45.6692 37.3604 46.088 37.3604C46.6285 37.3604 47.0473 37.2253 47.4527 36.82L58.6265 25.6461L69.5301 30.2805C70.3408 30.5507 71.165 30.2805 71.5703 29.6049L79.8797 17.2151L80.4202 18.9851C80.6904 19.9444 81.6497 20.3497 82.5955 20.0795C83.5548 19.9444 83.9601 18.9851 83.6899 18.1744Z" fill="#1E81CE"/>
<path d="M83.8251 76.6107H13.9448C12.9855 76.6107 12.1748 75.8 12.1748 74.8407C12.1748 73.8814 12.9855 73.0707 13.9448 73.0707H83.8251C84.7844 73.0707 85.5951 73.8949 85.5951 74.8407C85.46 75.8 84.6358 76.6107 83.8251 76.6107Z" fill="#1E81CE"/>
<path d="M70.2058 42.5622C69.8004 42.5622 69.2465 42.4271 68.9762 42.0217C68.706 41.7515 68.4358 41.211 68.4358 40.7922C68.4358 40.3733 68.5709 39.8329 68.9762 39.5627C69.2465 39.2924 69.7869 39.0222 70.2058 39.0222C70.6246 39.0222 71.1651 39.1573 71.4353 39.5627C71.7055 39.8329 71.9757 40.3733 71.9757 40.7922C71.9757 41.211 71.8406 41.7515 71.4353 42.0217C71.03 42.2919 70.6246 42.5622 70.2058 42.5622Z" fill="#1E81CE"/>
<path d="M68.4358 40.7922C68.4358 39.8329 69.2465 39.0222 70.2058 39.0222C71.1651 39.0222 71.9757 39.8329 71.9757 40.7922C71.9757 41.7515 71.1651 42.5622 70.2058 42.5622C69.2465 42.5622 68.4358 41.7515 68.4358 40.7922Z" fill="#1E81CE"/>
<path d="M68.4358 74.8406C68.4358 73.8948 69.2465 73.0707 70.2058 73.0707C71.1651 73.0707 71.9757 73.8948 71.9757 74.8406C71.9757 75.7999 71.1651 76.6106 70.2058 76.6106C69.2465 76.6106 68.4358 75.7999 68.4358 74.8406ZM68.4358 70.0712C68.4358 69.1118 69.2465 68.3012 70.2058 68.3012C71.1651 68.3012 71.9757 69.1118 71.9757 70.0712C71.9757 71.0305 71.1651 71.8411 70.2058 71.8411C69.2465 71.706 68.4358 70.8818 68.4358 70.0712ZM68.4358 65.1666C68.4358 64.2073 69.2465 63.3966 70.2058 63.3966C71.1651 63.3966 71.9757 64.2073 71.9757 65.1666C71.9757 66.1259 71.1651 66.9365 70.2058 66.9365C69.2465 66.8014 68.4358 66.1259 68.4358 65.1666ZM68.4358 60.262C68.4358 59.3027 69.2465 58.492 70.2058 58.492C71.1651 58.492 71.9757 59.3162 71.9757 60.262C71.9757 61.2213 71.1651 62.0319 70.2058 62.0319C69.2465 62.0319 68.4358 61.2078 68.4358 60.262ZM68.4358 55.3574C68.4358 54.3981 69.2465 53.5874 70.2058 53.5874C71.1651 53.5874 71.9757 54.3981 71.9757 55.3574C71.9757 56.3167 71.1651 57.1273 70.2058 57.1273C69.2465 57.1273 68.4358 56.3032 68.4358 55.3574ZM68.4358 50.6014C68.4358 49.6421 69.2465 48.8314 70.2058 48.8314C71.1651 48.8314 71.9757 49.6556 71.9757 50.6014C71.9757 51.5607 71.1651 52.3714 70.2058 52.3714C69.2465 52.2363 68.4358 51.5607 68.4358 50.6014ZM68.4358 45.6968C68.4358 44.7375 69.2465 43.9268 70.2058 43.9268C71.1651 43.9268 71.9757 44.751 71.9757 45.6968C71.9757 46.6561 71.1651 47.4668 70.2058 47.4668C69.2465 47.3317 68.4358 46.6426 68.4358 45.6968Z" fill="#1E81CE"/>
<path d="M70.2058 76.6107C69.8004 76.6107 69.2465 76.4756 68.9762 76.0702C68.706 75.8 68.4358 75.2461 68.4358 74.8407C68.4358 74.4354 68.5709 73.8949 68.9762 73.6112C69.2465 73.341 69.7869 73.0707 70.2058 73.0707C70.6246 73.0707 71.1651 73.2059 71.4353 73.6112C71.7055 73.8814 71.9757 74.4354 71.9757 74.8407C71.9757 75.2461 71.8406 75.8 71.4353 76.0702C71.03 76.3405 70.6246 76.6107 70.2058 76.6107Z" fill="#1E81CE"/>
<path d="M58.2212 37.3874C57.8158 37.3874 57.2619 37.2523 56.9916 36.847C56.7214 36.5768 56.4512 36.0228 56.4512 35.6175C56.4512 35.2121 56.5863 34.6581 56.9916 34.3879C57.2619 34.1177 57.8023 33.8475 58.2212 33.8475C58.64 33.8475 59.1805 33.9826 59.4507 34.3879C59.7209 34.6581 59.9911 35.1986 59.9911 35.6175C59.9911 36.0363 59.856 36.5768 59.4507 36.847C59.1805 37.2523 58.64 37.3874 58.2212 37.3874Z" fill="#1E81CE"/>
<path d="M56.5864 35.7525C56.5864 34.7932 57.3971 33.9825 58.3564 33.9825C59.3157 33.9825 60.1264 34.7932 60.1264 35.7525C60.1264 36.7118 59.3157 37.5225 58.3564 37.5225C57.262 37.3874 56.5864 36.7118 56.5864 35.7525Z" fill="#1E81CE"/>
<path d="M56.5864 74.8407C56.5864 73.8949 57.3971 73.0707 58.3564 73.0707C59.3157 73.0707 60.1264 73.8949 60.1264 74.8407C60.1264 75.8 59.3157 76.6106 58.3564 76.6106C57.262 76.6106 56.5864 75.8 56.5864 74.8407ZM56.5864 69.9361C56.5864 68.9768 57.3971 68.1661 58.3564 68.1661C59.3157 68.1661 60.1264 68.9768 60.1264 69.9361C60.1264 70.8954 59.3157 71.7061 58.3564 71.7061C57.262 71.7061 56.5864 70.8819 56.5864 69.9361ZM56.5864 65.0315C56.5864 64.0722 57.3971 63.2615 58.3564 63.2615C59.3157 63.2615 60.1264 64.0722 60.1264 65.0315C60.1264 65.9908 59.3157 66.8015 58.3564 66.8015C57.262 66.8015 56.5864 65.9908 56.5864 65.0315ZM56.5864 60.1269C56.5864 59.1676 57.3971 58.3569 58.3564 58.3569C59.3157 58.3569 60.1264 59.1811 60.1264 60.1269C60.1264 61.0862 59.3157 61.8969 58.3564 61.8969C57.262 61.8969 56.5864 61.0862 56.5864 60.1269ZM56.5864 55.3574C56.5864 54.3981 57.3971 53.5874 58.3564 53.5874C59.3157 53.5874 60.1264 54.3981 60.1264 55.3574C60.1264 56.3167 59.3157 57.1274 58.3564 57.1274C57.262 56.9923 56.5864 56.1681 56.5864 55.3574ZM56.5864 50.4528C56.5864 49.4935 57.3971 48.6828 58.3564 48.6828C59.3157 48.6828 60.1264 49.4935 60.1264 50.4528C60.1264 51.4121 59.3157 52.2228 58.3564 52.2228C57.262 52.0877 56.5864 51.2635 56.5864 50.4528ZM56.5864 45.5482C56.5864 44.5889 57.3971 43.7782 58.3564 43.7782C59.3157 43.7782 60.1264 44.6024 60.1264 45.5482C60.1264 46.5075 59.3157 47.3182 58.3564 47.3182C57.262 47.1831 56.5864 46.5075 56.5864 45.5482ZM56.5864 40.6571C56.5864 39.6978 57.3971 38.8871 58.3564 38.8871C59.3157 38.8871 60.1264 39.6978 60.1264 40.6571C60.1264 41.6164 59.3157 42.4271 58.3564 42.4271C57.262 42.292 56.5864 41.6029 56.5864 40.6571Z" fill="#1E81CE"/>
<path d="M58.2212 76.6107C57.8158 76.6107 57.2619 76.4756 56.9916 76.0702C56.7214 75.8 56.4512 75.2461 56.4512 74.8407C56.4512 74.4354 56.5863 73.8949 56.9916 73.6112C57.2619 73.341 57.8023 73.0707 58.2212 73.0707C58.64 73.0707 59.1805 73.2059 59.4507 73.6112C59.7209 73.8814 59.9911 74.4354 59.9911 74.8407C59.9911 75.2461 59.856 75.8 59.4507 76.0702C59.1805 76.3405 58.64 76.6107 58.2212 76.6107Z" fill="#1E81CE"/>
<path d="M46.3718 45.967C45.9664 45.967 45.4125 45.8319 45.1423 45.4266C44.7369 45.1563 44.6018 44.751 44.6018 44.197C44.6018 43.6431 44.7369 43.2377 45.1423 42.9675C45.4125 42.6973 45.9529 42.4271 46.3718 42.4271C46.7906 42.4271 47.3311 42.5622 47.6013 42.9675C47.8715 43.2377 48.1418 43.7782 48.1418 44.197C48.1418 44.6159 48.0066 45.1563 47.6013 45.4266C47.196 45.6968 46.7906 45.967 46.3718 45.967Z" fill="#1E81CE"/>
<path d="M44.6018 44.197C44.6018 43.2377 45.4125 42.4271 46.3718 42.4271C47.3311 42.4271 48.1418 43.2377 48.1418 44.197C48.1418 45.1563 47.3311 45.967 46.3718 45.967C45.4125 45.967 44.6018 45.1563 44.6018 44.197Z" fill="#1E81CE"/>
<path d="M44.6018 74.8406C44.6018 73.8948 45.4125 73.0706 46.3718 73.0706C47.3311 73.0706 48.1418 73.8948 48.1418 74.8406C48.1418 75.7999 47.3311 76.6106 46.3718 76.6106C45.4125 76.6106 44.6018 75.7999 44.6018 74.8406ZM44.6018 69.8009C44.6018 68.8416 45.4125 68.0309 46.3718 68.0309C47.3311 68.0309 48.1418 68.8551 48.1418 69.8009C48.1418 70.7602 47.3311 71.5709 46.3718 71.5709C45.4125 71.4358 44.6018 70.7602 44.6018 69.8009ZM44.6018 64.6261C44.6018 63.6668 45.4125 62.8561 46.3718 62.8561C47.3311 62.8561 48.1418 63.6803 48.1418 64.6261C48.1418 65.5854 47.3311 66.3961 46.3718 66.3961C45.4125 66.3961 44.6018 65.5854 44.6018 64.6261ZM44.6018 59.5864C44.6018 58.6271 45.4125 57.8164 46.3718 57.8164C47.3311 57.8164 48.1418 58.6271 48.1418 59.5864C48.1418 60.5457 47.3311 61.3564 46.3718 61.3564C45.4125 61.2212 44.6018 60.5457 44.6018 59.5864ZM44.6018 54.4116C44.6018 53.4523 45.4125 52.6416 46.3718 52.6416C47.3311 52.6416 48.1418 53.4523 48.1418 54.4116C48.1418 55.3709 47.3311 56.1815 46.3718 56.1815C45.4125 56.1815 44.6018 55.3709 44.6018 54.4116ZM44.6018 49.3718C44.6018 48.4125 45.4125 47.6019 46.3718 47.6019C47.3311 47.6019 48.1418 48.4125 48.1418 49.3718C48.1418 50.3311 47.3311 51.1418 46.3718 51.1418C45.4125 51.0067 44.6018 50.3311 44.6018 49.3718Z" fill="#1E81CE"/>
<path d="M46.3718 76.6107C45.9664 76.6107 45.4125 76.4756 45.1423 76.0702C44.872 75.8 44.6018 75.2461 44.6018 74.8407C44.6018 74.4354 44.7369 73.8949 45.1423 73.6112C45.4125 73.341 45.9529 73.0707 46.3718 73.0707C46.7906 73.0707 47.3311 73.2059 47.6013 73.6112C47.8715 73.8814 48.1418 74.4354 48.1418 74.8407C48.1418 75.2461 48.0066 75.8 47.6013 76.0702C47.196 76.3405 46.7906 76.6107 46.3718 76.6107Z" fill="#1E81CE"/>
<path d="M34.3874 37.3874C33.9821 37.3874 33.4281 37.2523 33.1579 36.847C32.8877 36.4416 32.6174 36.0228 32.6174 35.6175C32.6174 35.2121 32.7525 34.6581 33.1579 34.3879C33.4281 34.1177 33.9686 33.8475 34.3874 33.8475C34.8063 33.8475 35.3467 33.9826 35.6169 34.3879C35.8872 34.6581 36.1574 35.1986 36.1574 35.6175C36.1574 36.0363 36.0223 36.5768 35.6169 36.847C35.2116 37.1172 34.8063 37.3874 34.3874 37.3874Z" fill="#1E81CE"/>
<path d="M32.7524 35.7525C32.7524 34.7932 33.5631 33.9825 34.5224 33.9825C35.4817 33.9825 36.2924 34.7932 36.2924 35.7525C36.2924 36.7118 35.4817 37.5225 34.5224 37.5225C33.428 37.3874 32.7524 36.7118 32.7524 35.7525Z" fill="#1E81CE"/>
<path d="M32.7524 74.8407C32.7524 73.8949 33.5631 73.0707 34.5224 73.0707C35.4817 73.0707 36.2924 73.8949 36.2924 74.8407C36.2924 75.8 35.4817 76.6106 34.5224 76.6106C33.428 76.6106 32.7524 75.8 32.7524 74.8407ZM32.7524 69.9361C32.7524 68.9768 33.5631 68.1661 34.5224 68.1661C35.4817 68.1661 36.2924 68.9768 36.2924 69.9361C36.2924 70.8954 35.4817 71.7061 34.5224 71.7061C33.428 71.7061 32.7524 70.8819 32.7524 69.9361ZM32.7524 65.0315C32.7524 64.0722 33.5631 63.2615 34.5224 63.2615C35.4817 63.2615 36.2924 64.0722 36.2924 65.0315C36.2924 65.9908 35.4817 66.8015 34.5224 66.8015C33.428 66.8015 32.7524 65.9908 32.7524 65.0315ZM32.7524 60.1269C32.7524 59.1676 33.5631 58.3569 34.5224 58.3569C35.4817 58.3569 36.2924 59.1811 36.2924 60.1269C36.2924 61.0862 35.4817 61.8969 34.5224 61.8969C33.428 61.8969 32.7524 61.0862 32.7524 60.1269ZM32.7524 55.3574C32.7524 54.3981 33.5631 53.5874 34.5224 53.5874C35.4817 53.5874 36.2924 54.3981 36.2924 55.3574C36.2924 56.3167 35.4817 57.1274 34.5224 57.1274C33.428 56.9923 32.7524 56.1681 32.7524 55.3574ZM32.7524 50.4528C32.7524 49.4935 33.5631 48.6828 34.5224 48.6828C35.4817 48.6828 36.2924 49.4935 36.2924 50.4528C36.2924 51.4121 35.4817 52.2228 34.5224 52.2228C33.428 52.0877 32.7524 51.2635 32.7524 50.4528ZM32.7524 45.5482C32.7524 44.5889 33.5631 43.7782 34.5224 43.7782C35.4817 43.7782 36.2924 44.6024 36.2924 45.5482C36.2924 46.5075 35.4817 47.3182 34.5224 47.3182C33.428 47.1831 32.7524 46.5075 32.7524 45.5482ZM32.7524 40.6571C32.7524 39.6978 33.5631 38.8871 34.5224 38.8871C35.4817 38.8871 36.2924 39.6978 36.2924 40.6571C36.2924 41.6164 35.4817 42.4271 34.5224 42.4271C33.428 42.292 32.7524 41.6029 32.7524 40.6571Z" fill="#1E81CE"/>
<path d="M34.3874 76.6107C33.9821 76.6107 33.4281 76.4756 33.1579 76.0702C32.8877 75.8 32.6174 75.2461 32.6174 74.8407C32.6174 74.4354 32.7525 73.8949 33.1579 73.6112C33.4281 73.341 33.9686 73.0707 34.3874 73.0707C34.8063 73.0707 35.3467 73.2059 35.6169 73.6112C35.8872 73.8814 36.1574 74.4354 36.1574 74.8407C36.1574 75.2461 36.0223 75.8 35.6169 76.0702C35.3467 76.3405 34.8063 76.6107 34.3874 76.6107Z" fill="#1E81CE"/>
<path d="M22.5244 52.7768C22.119 52.7768 21.5651 52.6417 21.2948 52.2363C21.0246 51.9661 20.7544 51.4256 20.7544 51.0068C20.7544 50.5879 20.8895 50.0475 21.2948 49.7773C21.5651 49.507 22.1055 49.2368 22.5244 49.2368C22.9432 49.2368 23.4837 49.3719 23.7539 49.7773C24.0241 50.0475 24.2944 50.5879 24.2944 51.0068C24.2944 51.4256 24.1592 51.9661 23.7539 52.2363C23.3486 52.5065 22.9432 52.7768 22.5244 52.7768Z" fill="#1E81CE"/>
<path d="M20.7544 51.0068C20.7544 50.0475 21.5651 49.2368 22.5244 49.2368C23.4837 49.2368 24.2944 50.0475 24.2944 51.0068C24.2944 51.9661 23.4837 52.7768 22.5244 52.7768C21.5651 52.7768 20.7544 51.9661 20.7544 51.0068Z" fill="#1E81CE"/>
<path d="M20.7544 74.8406C20.7544 73.8948 21.5651 73.0706 22.5244 73.0706C23.4837 73.0706 24.2944 73.8948 24.2944 74.8406C24.2944 75.7999 23.4837 76.6105 22.5244 76.6105C21.5651 76.6105 20.7544 75.7999 20.7544 74.8406ZM20.7544 70.0711C20.7544 69.1118 21.5651 68.3011 22.5244 68.3011C23.4837 68.3011 24.2944 69.1118 24.2944 70.0711C24.2944 71.0304 23.4837 71.8411 22.5244 71.8411C21.5651 71.8411 20.7544 71.0304 20.7544 70.0711ZM20.7544 65.3016C20.7544 64.3423 21.5651 63.5316 22.5244 63.5316C23.4837 63.5316 24.2944 64.3558 24.2944 65.3016C24.2944 66.2609 23.4837 67.0716 22.5244 67.0716C21.5651 67.0716 20.7544 66.2474 20.7544 65.3016ZM20.7544 60.5456C20.7544 59.5863 21.5651 58.7756 22.5244 58.7756C23.4837 58.7756 24.2944 59.5863 24.2944 60.5456C24.2944 61.5049 23.4837 62.3156 22.5244 62.3156C21.5651 62.3156 20.7544 61.5049 20.7544 60.5456ZM20.7544 55.7761C20.7544 54.8168 21.5651 54.0062 22.5244 54.0062C23.4837 54.0062 24.2944 54.8304 24.2944 55.7761C24.2944 56.7354 23.4837 57.5461 22.5244 57.5461C21.5651 57.5461 20.7544 56.7219 20.7544 55.7761Z" fill="#1E81CE"/>
<path d="M22.5244 76.6107C22.119 76.6107 21.5651 76.4756 21.2948 76.0702C21.0246 75.8 20.7544 75.2461 20.7544 74.8407C20.7544 74.4354 20.8895 73.8949 21.2948 73.6112C21.5651 73.341 22.1055 73.0707 22.5244 73.0707C22.9432 73.0707 23.4837 73.2059 23.7539 73.6112C24.0241 73.8814 24.2944 74.4354 24.2944 74.8407C24.2944 75.2461 24.1592 75.8 23.7539 76.0702C23.3486 76.3405 22.9432 76.6107 22.5244 76.6107Z" fill="#1E81CE"/>
<path d="M39.5622 13.54H20.768C19.8087 13.54 18.998 12.7158 18.998 11.77C18.998 10.8242 19.8087 10 20.768 10H39.5622C40.5215 10 41.3322 10.8242 41.3322 11.77C41.3322 12.7158 40.3729 13.54 39.5622 13.54Z" fill="#1E81CE"/>
<path d="M46.3719 18.7147H39.5622C38.6029 18.7147 37.7922 17.8905 37.7922 16.9447C37.7922 15.9989 38.6029 15.1747 39.5622 15.1747H46.3719C47.3312 15.1747 48.1419 15.9854 48.1419 16.9447C48.0068 17.904 47.1826 18.7147 46.3719 18.7147Z" fill="#1E81CE"/>
<path d="M83.8253 40.7922H80.4204V44.1971H83.8253V40.7922Z" fill="#1E81CE"/>
<path d="M87.23 37.3874H83.8252V40.7922H87.23V37.3874Z" fill="#1E81CE"/>
<path d="M83.8253 33.9825H80.4204V37.3874H83.8253V33.9825Z" fill="#1E81CE"/>
<path d="M87.23 30.5641H83.8252V33.969H87.23V30.5641Z" fill="#1E81CE"/>
<path d="M83.8253 27.1592H80.4204V30.5641H83.8253V27.1592Z" fill="#1E81CE"/>
</svg>
