<svg width="193" height="47" viewBox="0 0 193 47" fill="none" xmlns="http://www.w3.org/2000/svg">
<path fill-rule="evenodd" clip-rule="evenodd" d="M4.13257 10.5946C11.8603 -6.88411 42.1514 5.30603 30.6934 26.106C30.0186 26.7518 28.8855 25.5617 30.1235 24.4957C32.85 8.75283 15.4793 1.03209 5.59037 10.7006C4.87315 11.8886 3.83513 11.5601 4.13257 10.5946Z" fill="white"/>
<path fill-rule="evenodd" clip-rule="evenodd" d="M24.8732 0.668356C43.8764 -1.35643 47.9606 30.3347 24.2178 30.7842C23.3213 30.5217 23.7874 28.9457 25.3291 29.4868C40.3322 23.994 38.822 5.72958 25.5086 1.98452C24.1214 1.95544 23.8881 0.89204 24.8732 0.668356Z" fill="white"/>
<path fill-rule="evenodd" clip-rule="evenodd" d="M43.2427 13.7739C53.6745 29.7863 27.2924 47.8141 16.1121 26.8632C15.9391 25.9454 17.5546 25.6452 17.7726 27.2643C29.4784 38.138 45.0663 28.5003 42.3585 14.9379C41.7543 13.6887 42.5959 12.9981 43.2427 13.7739Z" fill="white"/>
<path fill-rule="evenodd" clip-rule="evenodd" d="M42.0452 35.3629C33.9331 52.8014 3.61946 40.37 15.6048 19.6297C16.3059 18.9875 17.4642 20.1836 16.179 21.2432C13.2377 36.9722 30.2678 44.8658 40.5431 35.249C41.2925 34.065 42.3597 34.3991 42.0452 35.3629Z" fill="white"/>
<path fill-rule="evenodd" clip-rule="evenodd" d="M21.7594 45.4892C2.59538 47.1152 -1.68032 14.6319 22.2737 14.7261C23.1794 15.0155 22.7169 16.615 21.1589 16.0261C6.04762 21.29 7.66025 39.9912 21.1117 44.129C22.5115 44.1909 22.752 45.2831 21.7594 45.4892Z" fill="white"/>
<path fill-rule="evenodd" clip-rule="evenodd" d="M2.66663 32.5048C-8.34268 16.8081 17.5233 -2.66856 29.6115 17.8052C29.8011 18.7368 28.1792 19.114 27.9327 17.4668C16.0416 7.55176 0.624635 17.8806 3.5376 31.2758C4.16687 32.5277 3.33087 33.2707 2.66663 32.5048Z" fill="white"/>
<path d="M72.154 39.467C71.9594 39.1575 71.6418 38.8784 71.1971 38.6278C70.4169 38.1878 69.4779 37.9676 68.38 37.9676C67.2822 37.9676 66.3432 38.1878 65.563 38.6278C65.1187 38.8784 64.8011 39.1575 64.606 39.467H72.154ZM71.3421 41.7163H74.4951C74.1636 42.1358 73.6966 42.5197 73.0841 42.8626C71.7823 43.5968 70.2125 43.9653 68.38 43.9653C66.5476 43.9653 64.9778 43.5996 63.6804 42.8677C62.3831 42.1358 61.7344 41.2505 61.7344 40.2167C61.7344 39.1832 62.3831 38.3001 63.6804 37.5658C64.9778 36.8342 66.5476 36.4682 68.38 36.4682C70.2125 36.4682 71.7778 36.8342 73.0797 37.5658C74.377 38.3001 75.0257 39.1832 75.0257 40.2167C75.0257 40.4778 74.985 40.7259 74.9031 40.9666H64.606C64.8011 41.2762 65.1187 41.5576 65.563 41.8057C66.3432 42.2459 67.2822 42.4659 68.38 42.4659C69.4779 42.4659 70.4169 42.2459 71.1971 41.8057C71.2517 41.7751 71.2969 41.7468 71.3421 41.7163ZM79.0959 40.2167V43.9653H76.4376V40.2167C76.4376 39.1832 77.0863 38.3001 78.3837 37.5658C79.6815 36.8342 81.2509 36.4682 83.0833 36.4682C84.9157 36.4682 86.481 36.8342 87.7829 37.5658C89.0803 38.3001 89.7289 39.1832 89.7289 40.2167V43.9653H87.0707V40.2167C87.0707 39.5975 86.6806 39.068 85.9004 38.6278C85.1201 38.1878 84.1811 37.9676 83.0833 37.9676C81.9854 37.9676 81.0464 38.1878 80.2662 38.6278C79.486 39.068 79.0959 39.5975 79.0959 40.2167ZM93.7991 40.2167C93.7991 40.836 94.1892 41.3657 94.9699 41.8057C95.7496 42.2459 96.6887 42.4659 97.7865 42.4659C98.8843 42.4659 99.8234 42.2459 100.604 41.8057C101.384 41.3657 101.774 40.836 101.774 40.2167C101.774 39.5975 101.384 39.068 100.604 38.6278C99.8234 38.1878 98.8843 37.9676 97.7865 37.9676C96.6887 37.9676 95.7496 38.1878 94.9699 38.6278C94.1892 39.068 93.7991 39.5975 93.7991 40.2167ZM104.432 40.2167V43.2156C104.432 44.2495 103.783 45.1348 102.486 45.8666C101.184 46.5983 99.6189 46.9643 97.7865 46.9643V45.4649C98.8843 45.4649 99.8234 45.2449 100.604 44.8047C101.384 44.3646 101.774 43.8374 101.774 43.2233C100.631 43.7172 99.3017 43.9653 97.7865 43.9653C95.9541 43.9653 94.3847 43.5996 93.0869 42.8677C91.7895 42.1358 91.1413 41.2505 91.1413 40.2167C91.1413 39.1832 91.7895 38.3001 93.0869 37.5658C94.3847 36.8342 95.9541 36.4682 97.7865 36.4682C99.6189 36.4682 101.184 36.8342 102.486 37.5658C103.783 38.3001 104.432 39.1832 104.432 40.2167ZM116.264 39.467C116.069 39.1575 115.752 38.8784 115.307 38.6278C114.527 38.1878 113.588 37.9676 112.49 37.9676C111.392 37.9676 110.453 38.1878 109.673 38.6278C109.228 38.8784 108.911 39.1575 108.716 39.467H116.264ZM115.452 41.7163H118.605C118.273 42.1358 117.806 42.5197 117.194 42.8626C115.892 43.5968 114.323 43.9653 112.49 43.9653C110.657 43.9653 109.088 43.5996 107.79 42.8677C106.493 42.1358 105.845 41.2505 105.845 40.2167C105.845 39.1832 106.493 38.3001 107.79 37.5658C109.088 36.8342 110.657 36.4682 112.49 36.4682C114.323 36.4682 115.887 36.8342 117.189 37.5658C118.487 38.3001 119.135 39.1832 119.135 40.2167C119.135 40.4778 119.095 40.7259 119.013 40.9666H108.716C108.911 41.2762 109.228 41.5576 109.673 41.8057C110.453 42.2459 111.392 42.4659 112.49 42.4659C113.588 42.4659 114.527 42.2459 115.307 41.8057C115.361 41.7751 115.407 41.7468 115.452 41.7163ZM123.206 40.2167V43.9653H120.548V40.2167C120.548 39.1832 121.196 38.3001 122.494 37.5658C123.791 36.8342 125.361 36.4682 127.193 36.4682C129.026 36.4682 130.591 36.8342 131.893 37.5658C133.19 38.3001 133.839 39.1832 133.839 40.2167V43.9653H131.18V40.2167C131.18 39.5975 130.79 39.068 130.01 38.6278C129.23 38.1878 128.291 37.9676 127.193 37.9676C126.096 37.9676 125.157 38.1878 124.376 38.6278C123.596 39.068 123.206 39.5975 123.206 40.2167ZM137.909 37.2102C139.052 36.7165 140.381 36.4682 141.897 36.4682C143.729 36.4682 145.294 36.8342 146.596 37.5658C147.893 38.3001 148.542 39.1832 148.542 40.2167V43.9653H145.884V40.2167C145.884 39.5975 145.493 39.068 144.713 38.6278C143.933 38.1878 142.994 37.9676 141.897 37.9676C140.799 37.9676 139.86 38.1878 139.08 38.6278C138.299 39.068 137.909 39.5975 137.909 40.2167V43.9653H135.251V33.4695H137.909V37.2102ZM156.6 37.9676C155.502 37.9676 154.563 38.1878 153.783 38.6278C153.003 39.068 152.612 39.5975 152.612 40.2167C152.612 40.836 153.003 41.3657 153.783 41.8057C154.563 42.2459 155.502 42.4659 156.6 42.4659C157.698 42.4659 158.636 42.2459 159.417 41.8057C160.197 41.3657 160.587 40.836 160.587 40.2167C160.587 39.5975 160.197 39.068 159.417 38.6278C158.636 38.1878 157.698 37.9676 156.6 37.9676ZM160.587 43.2233C159.444 43.7172 158.115 43.9653 156.6 43.9653C154.767 43.9653 153.198 43.5996 151.9 42.8677C150.603 42.1358 149.954 41.2505 149.954 40.2167C149.954 39.1832 150.603 38.3001 151.9 37.5658C153.198 36.8342 154.767 36.4682 156.6 36.4682C158.432 36.4682 159.998 36.8342 161.299 37.5658C162.596 38.3001 163.245 39.1832 163.245 40.2167V43.9653H160.587V43.2233ZM167.316 40.2167V43.9653H164.657V40.2167C164.657 39.1832 165.306 38.3001 166.603 37.5658C167.901 36.8342 169.47 36.4682 171.303 36.4682V37.9676C170.205 37.9676 169.266 38.1878 168.486 38.6278C167.706 39.068 167.316 39.5975 167.316 40.2167ZM175.373 36.4682V43.9653H172.715V36.4682H175.373ZM172.715 34.9686V33.4695H175.373V34.9686H172.715ZM183.431 37.9676C182.333 37.9676 181.394 38.1878 180.614 38.6278C179.834 39.068 179.443 39.5975 179.443 40.2167C179.443 40.836 179.834 41.3657 180.614 41.8057C181.394 42.2459 182.333 42.4659 183.431 42.4659C184.529 42.4659 185.468 42.2459 186.248 41.8057C187.028 41.3657 187.418 40.836 187.418 40.2167C187.418 39.5975 187.028 39.068 186.248 38.6278C185.468 38.1878 184.529 37.9676 183.431 37.9676ZM187.418 43.2233C186.275 43.7172 184.946 43.9653 183.431 43.9653C181.598 43.9653 180.029 43.5996 178.731 42.8677C177.434 42.1358 176.785 41.2505 176.785 40.2167C176.785 39.1832 177.434 38.3001 178.731 37.5658C180.029 36.8342 181.598 36.4682 183.431 36.4682C185.263 36.4682 186.829 36.8342 188.13 37.5658C189.428 38.3001 190.076 39.1832 190.076 40.2167V43.9653H187.418V43.2233Z" fill="white"/>
<path fill-rule="evenodd" clip-rule="evenodd" d="M94.5623 11.8171C74.7814 8.34321 57.432 11.9547 59.8245 22.6006C61.5308 29.5006 69.3897 32.268 82.4162 31.8215C94.8911 31.7618 105.414 30.1364 105.182 19.8883L105.098 0.253662L94.603 7.62939e-06L94.5623 11.8171ZM71.9428 15.9932C76.128 12.0702 91.1184 12.1904 94.2487 18.1284L94.3068 24.1042C91.6123 30.4487 73.4156 29.6111 71.2897 25.6087C70.0138 22.1673 69.5391 19.2048 71.9428 15.9932Z" fill="white"/>
<path fill-rule="evenodd" clip-rule="evenodd" d="M142.146 11.8743L142.217 15.305C134.655 12.4569 119.97 12.3365 119.717 15.312C119.957 20.2331 142.437 17.717 143.896 25.6903C143.986 34.5197 118.035 32.0508 112.472 31.8191C111.267 30.6381 110.793 29.3804 111.373 28.0112C118.694 31.2232 135.051 30.1764 134.616 26.0983C132.925 22.287 109.761 23.5214 111.399 15.3534C112.659 10.6384 128.39 8.33202 142.146 11.8743Z" fill="white"/>
<path fill-rule="evenodd" clip-rule="evenodd" d="M182.682 28.3252L183.924 30.5687C177.116 32.1239 169.297 32.8115 161.115 30.9581C153.057 29.5394 149.334 25.2046 149.817 20.7715C150.5 14.9618 160.125 10.8193 172.587 10.7788C184.674 11.8393 193.505 14.721 192.978 22.8371L159.741 23.0603C162.558 30.236 171.99 30.0714 182.682 28.3252ZM159.973 19.4962C161.39 11.7712 180.317 11.8372 182.466 19.4144L159.973 19.4962Z" fill="white"/>
</svg>
