<svg width="72" height="28" viewBox="0 0 72 28" fill="none" xmlns="http://www.w3.org/2000/svg">
<g clip-path="url(#clip0_105_220)">
<path fill-rule="evenodd" clip-rule="evenodd" d="M12.5017 0.020874L26.6552 11.1186L26.2853 0.683471L12.5017 0.020874Z" fill="#F56032"/>
<path fill-rule="evenodd" clip-rule="evenodd" d="M9.52642 0.236206L0.197323 11.6486L-0.00439453 0.385295L9.52642 0.236206Z" fill="#00BFBB"/>
<mask id="mask0_105_220" style="mask-type:luminance" maskUnits="userSpaceOnUse" x="-1" y="0" width="11" height="12">
<path d="M9.52642 0.236206L0.197323 11.6486L-0.00439453 0.385295L9.52642 0.236206Z" fill="white"/>
</mask>
<g mask="url(#mask0_105_220)">
<path fill-rule="evenodd" clip-rule="evenodd" d="M1.88471 3.19977C2.15015 3.19977 2.39541 3.28488 2.59393 3.42886C2.59287 3.40937 2.59229 3.38975 2.59229 3.36996C2.59229 2.77623 3.08073 2.29492 3.68327 2.29492C4.2858 2.29492 4.77424 2.77623 4.77424 3.36996C4.77424 3.38302 4.77393 3.39605 4.77344 3.40902C4.93512 3.3156 5.12336 3.26203 5.32436 3.26203C5.9269 3.26203 6.4153 3.74334 6.4153 4.33707C6.4153 4.93076 5.9269 5.41211 5.32436 5.41211C4.9498 5.41211 4.6194 5.22605 4.42291 4.94273C4.33121 5.44501 3.88543 5.82616 3.34923 5.82616C2.99577 5.82616 2.68164 5.66052 2.48232 5.40372C2.30641 5.50369 2.1023 5.56085 1.88471 5.56085C1.22298 5.56085 0.686646 5.03231 0.686646 4.38033C0.686646 3.7283 1.22298 3.19977 1.88471 3.19977Z" fill="#FEFEFE"/>
<path fill-rule="evenodd" clip-rule="evenodd" d="M0.564338 1.42126C0.685971 1.42126 0.789734 1.49677 0.829909 1.60282C0.879219 1.56201 0.942718 1.53736 1.01216 1.53736C1.1565 1.53736 1.27565 1.64372 1.2933 1.78123C1.31041 1.77699 1.32828 1.77476 1.34677 1.77476C1.4524 1.77476 1.54073 1.84812 1.5621 1.94592C1.60064 1.91327 1.65079 1.89348 1.7056 1.89348C1.82728 1.89348 1.92589 1.9907 1.92589 2.11056C1.92589 2.23046 1.82728 2.32764 1.7056 2.32764C1.67066 2.32764 1.63762 2.3196 1.60826 2.30535C1.57691 2.45982 1.43856 2.57622 1.27254 2.57622C1.18545 2.57622 1.10595 2.54415 1.04551 2.49132C0.96959 2.58251 0.854387 2.64072 0.725348 2.64072C0.556401 2.64072 0.411088 2.54096 0.34679 2.39794C0.315795 2.41062 0.282537 2.41887 0.247728 2.42198C0.219747 2.4755 0.163121 2.51216 0.0978035 2.51216C0.00468287 2.51216 -0.0707892 2.43775 -0.0707892 2.34608C-0.0707892 2.32445 -0.066621 2.30374 -0.0589496 2.28477C-0.099701 2.2295 -0.123779 2.16146 -0.123779 2.08793C-0.123779 1.90266 0.0286282 1.75248 0.216643 1.75248C0.240899 1.75248 0.264489 1.75497 0.287326 1.75973C0.283158 1.74063 0.280941 1.7208 0.280941 1.70048C0.280941 1.54628 0.407851 1.42126 0.564338 1.42126Z" fill="#FEFEFE"/>
</g>
<path fill-rule="evenodd" clip-rule="evenodd" d="M10.9382 0.136841L26.1171 12.5431L16.8383 25.4794L2.44788 10.9043L10.9382 0.136841Z" fill="#C24B32"/>
<path fill-rule="evenodd" clip-rule="evenodd" d="M1.91986 11.4415L16.4347 26.001L13.9638 27.0776L0.751465 13.6941L1.91986 11.4415Z" fill="#FFD296"/>
<path fill-rule="evenodd" clip-rule="evenodd" d="M25.1418 16.7914L17.1406 26.6302L24.4357 28.0216L25.1418 16.7914Z" fill="#00BFBB"/>
<mask id="mask1_105_220" style="mask-type:luminance" maskUnits="userSpaceOnUse" x="17" y="16" width="9" height="13">
<path d="M25.1418 16.7914L17.1406 26.6302L24.4357 28.0216L25.1418 16.7914Z" fill="white"/>
</mask>
<g mask="url(#mask1_105_220)">
<path fill-rule="evenodd" clip-rule="evenodd" d="M23.9214 23.5156C24.4088 23.5156 24.8039 23.905 24.8039 24.3853C24.8039 24.621 24.7087 24.8347 24.5543 24.9913C24.6067 25.1109 24.6358 25.2427 24.6358 25.3812C24.6358 25.9245 24.189 26.3648 23.6377 26.3648C23.4401 26.3648 23.256 26.3083 23.101 26.2107C22.9701 26.3099 22.8062 26.369 22.6282 26.369C22.3354 26.369 22.0805 26.2092 21.9482 25.9733C21.8427 26.0722 21.6999 26.1329 21.5428 26.1329C21.3754 26.1329 21.2243 26.0641 21.1172 25.9535C21.0105 26.1186 20.8232 26.2282 20.6099 26.2282C20.2779 26.2282 20.0088 25.963 20.0088 25.6359C20.0088 25.3195 20.2606 25.0611 20.5775 25.0445C20.5711 25.004 20.5677 24.9625 20.5677 24.9202C20.5677 24.4769 20.9325 24.1174 21.3824 24.1174C21.5345 24.1174 21.6769 24.1586 21.7987 24.2301C21.9086 23.9687 22.17 23.7847 22.4752 23.7847C22.7297 23.7847 22.9538 23.9128 23.085 24.1071C23.2027 23.7632 23.5327 23.5156 23.9214 23.5156Z" fill="#FEFEFE"/>
</g>
<path fill-rule="evenodd" clip-rule="evenodd" d="M1.1631 15.342L0.969849 25.9179L12.5514 26.8289L1.1631 15.342Z" fill="#373435"/>
<path fill-rule="evenodd" clip-rule="evenodd" d="M24.4609 1.38684H25.772L25.7384 4.69956L24.4945 4.70786L24.4609 1.38684Z" fill="#FFAE93"/>
<path fill-rule="evenodd" clip-rule="evenodd" d="M16.3588 7.21729L17.7708 8.19458L10.3243 15.5323L9.38293 14.5964L16.3588 7.21729Z" fill="#FEFEFE"/>
<path fill-rule="evenodd" clip-rule="evenodd" d="M13.1732 4.50903L11.9798 3.76367L5.2854 11.267L5.86115 11.8343L13.1732 4.50903Z" fill="#FEFEFE"/>
<path fill-rule="evenodd" clip-rule="evenodd" d="M14.3164 18.3313L15.1233 19.1263L22.0738 11.449L21.1324 10.7533L14.3164 18.3313Z" fill="#FEFEFE"/>
<path fill-rule="evenodd" clip-rule="evenodd" d="M2.08667 25.2189L8.41537 24.0428L10.5165 26.0554L2.08667 25.2189Z" fill="#97999C"/>
<path d="M39.9574 5.47102L35.7434 5.78148V12.1653L39.9574 12.2623L39.859 15.7938L32.1202 15.6386V2.46343L39.7014 1.88132L39.9574 5.47102ZM49.8622 15.755L40.942 15.9684L41.2177 0.464844L48.8579 0.620093L48.7989 4.16449L44.7424 4.10629V6.20834H48.0506V9.75924H44.644V12.3205L49.7638 12.1653L49.8622 15.755ZM54.6275 1.70667L54.5291 12.1265L59.6489 11.9713L59.7079 15.5416L50.8468 15.755L51.0634 1.64846L54.6275 1.70667ZM64.4339 5.33517L64.3354 12.437L67.4861 12.4952L68.0768 5.29637L64.4339 5.33517ZM60.8894 1.78431L71.9954 1.70667L70.7155 16.0655L60.6925 15.9684L60.8894 1.78431Z" fill="#373435"/>
<path d="M34.356 20.1419V25.2786L36.3367 25.1828L37.1872 23.2071L35.6319 20.3694L34.356 20.1419ZM32.1202 17.7711L37.0293 18.262L39.6661 23.1113L37.8556 27.3261L32.1202 27.5536V17.7711ZM45.7781 27.2542L40.2737 27.3859L40.4438 17.819L45.1584 17.9148L45.122 20.102L42.6188 20.066V21.3632H44.6602V23.5544H42.5581V25.1349L45.7174 25.0391L45.7781 27.2542ZM52.6314 20.7286L48.9374 20.6927L48.7309 21.9739L52.8501 23.5304L53.0445 27.4219L46.8839 27.5536L46.8475 25.3744L50.6994 25.2786V25.0511L46.3857 23.4227L46.8596 18.4775L52.6557 18.5135L52.6314 20.7286ZM56.0581 18.8727L55.8879 27.0627L53.6521 27.0268L53.8465 18.8368L56.0581 18.8727ZM61.0279 21.5787L61.1251 20.7047H59.0472L58.95 25.3265L60.955 25.3624L60.9185 24.7518H59.8978V22.5486L63.1543 22.5845V27.5775L56.6656 27.5177L56.8965 18.5135H63.6039L63.2029 21.8182L61.0279 21.5787ZM64.3451 27.2183L64.2115 18.4895L66.6539 18.3578L68.8289 23.0036L68.7317 18.3937L70.9675 18.3578L71.1012 26.6316L68.0026 26.5358L66.5202 23.3269L66.5567 27.1944L64.3451 27.2183Z" fill="#373435"/>
</g>
<defs>
<clipPath id="clip0_105_220">
<rect width="72" height="28" fill="white"/>
</clipPath>
</defs>
</svg>
