<svg width="64" height="64" viewBox="0 0 64 64" fill="none" xmlns="http://www.w3.org/2000/svg">
<circle cx="32" cy="32" r="32" fill="#FF7A00"/>
<circle cx="32" cy="21" r="5" fill="#DC7311"/>
<path d="M47.9751 42.2302L43.468 30.4321C43.4017 30.1669 43.1366 30.0344 42.8715 30.0344H21.1311C20.866 30.0344 20.6009 30.2332 20.5346 30.4321L16.0275 42.2302C15.9612 42.429 16.0275 42.6279 16.0937 42.8267C16.2263 43.0255 16.4251 43.0918 16.624 43.0918H19.9381V45.478C19.9381 45.8756 20.2032 46.1408 20.6009 46.1408H44.1971C44.5948 46.1408 44.8599 45.8756 44.8599 45.478V43.0918H47.246C47.4449 43.0918 47.6437 42.9593 47.7763 42.8267C47.9751 42.6279 48.0414 42.429 47.9751 42.2302ZM27.8918 37.5905L28.3558 34.4752H35.5805L36.0445 37.5905H27.8918ZM36.177 38.9161L36.5747 41.8325H27.2953L27.693 38.9161H36.177ZM20.402 34.4752H26.9639L26.4999 37.5905H19.209L20.402 34.4752ZM28.4884 33.1496L28.7535 31.36H35.0502L35.3154 33.1496H28.4884ZM36.8398 34.4752H43.5343L44.7274 37.5905H37.3038L36.8398 34.4752ZM43.0703 33.1496H36.641L36.3759 31.36H42.3412L43.0703 33.1496ZM21.5951 31.36H27.4279L27.1627 33.1496H20.9323L21.5951 31.36ZM18.745 38.9161H26.3674L25.9697 41.8325H17.6182L18.745 38.9161ZM43.6006 44.8151H21.33V43.0918H26.4999C26.4999 43.0918 26.4999 43.0918 26.5662 43.0918H37.3038C37.3038 43.0918 37.3038 43.0918 37.3701 43.0918H43.6006V44.8151ZM37.9004 41.7662L37.5027 38.8498H45.2576L46.3844 41.7662H37.9004Z" fill="white"/>
<path d="M24.7103 21.6166H26.3673C26.4999 22.6771 26.8976 23.605 27.5604 24.4667L26.3673 25.5935C26.1022 25.8586 26.1022 26.2563 26.3673 26.5214C26.4999 26.654 26.6987 26.7203 26.8313 26.7203C26.9639 26.7203 27.1627 26.654 27.2953 26.5214L28.4883 25.3284C29.2837 25.9912 30.2779 26.3889 31.3385 26.5214V28.1785C31.3385 28.5762 31.6036 28.8413 32.0013 28.8413C32.399 28.8413 32.6641 28.5762 32.6641 28.1785V26.5214C33.7246 26.3889 34.6525 25.9912 35.5142 25.3284L36.7073 26.5214C36.8398 26.654 37.0387 26.7203 37.1712 26.7203C37.3038 26.7203 37.5026 26.654 37.6352 26.5214C37.9003 26.2563 37.9003 25.8586 37.6352 25.5935L36.4421 24.4004C37.1049 23.605 37.5026 22.6108 37.6352 21.5503H39.2922C39.6899 21.5503 39.9551 21.2852 39.9551 20.8875C39.9551 20.4898 39.6899 20.2247 39.2922 20.2247H37.6352C37.5026 19.1642 37.1049 18.17 36.4421 17.3746L37.6352 16.1815C37.9003 15.9164 37.9003 15.5187 37.6352 15.2536C37.3701 14.9884 36.9724 14.9884 36.7073 15.2536L35.5142 16.4466C34.7188 15.7838 33.7246 15.3861 32.6641 15.2536V13.6628C32.6641 13.2651 32.399 13 32.0013 13C31.6036 13 31.3385 13.2651 31.3385 13.6628V15.3199C30.2779 15.4524 29.2837 15.8501 28.4883 16.5129L27.2953 15.3199C27.0302 15.0547 26.6325 15.0547 26.3673 15.3199C26.1022 15.585 26.1022 15.9827 26.3673 16.2478L27.5604 17.4409C26.8976 18.2362 26.4999 19.2305 26.3673 20.291H24.7103C24.3126 20.291 24.0475 20.5561 24.0475 20.9538C24.0475 21.3515 24.3789 21.6166 24.7103 21.6166ZM32.0013 16.5792C34.3874 16.5792 36.3758 18.5014 36.3758 20.8875C36.3758 22.0143 35.9119 23.1411 35.1165 23.9365C34.3211 24.7318 33.1943 25.1958 32.0675 25.1958C30.9408 25.1958 29.814 24.7318 29.0186 23.9365C28.2232 23.1411 27.7593 22.0143 27.7593 20.8875C27.693 18.5676 29.6151 16.5792 32.0013 16.5792Z" fill="white"/>
</svg>
